<?xml version="1.0" encoding="utf-8"?>
<svg viewBox="0 0 500 500" xmlns="http://www.w3.org/2000/svg">
  <defs>
        <filter id="glow">
            <feGaussianBlur stdDeviation="5" result="coloredBlur"/>
            <feMerge>
                <feMergeNode in="coloredBlur"/>
                <feMergeNode in="SourceGraphic"/>
            </feMerge>
        </filter>
		</defs>
  <g transform="matrix(5.046086311340332, 0, 0, 5.184647560119629, -1432.2340087890623, -2937.7737268239216)" filter="url(#glow)">
    <g>
      <path d="M339.86722,619c-5.95215,0-12.0791-3.12402-13.95312-4.34668
			c-0.9248-0.60352-1.18457-1.83203-0.58105-2.75781c0.60352-0.92383,1.8418-1.19824,2.76855-0.59668
			c1.5,0.97852,6.9043,3.70117,11.8877,3.70117c0.00586,0,0.0127,0,0.01855,0c1.0957,0,1.98926,0.88281,2,1.98145
			C342.01859,618.08594,341.13089,619,340.0264,619C339.97366,619,339.91995,619,339.86722,619z" style="fill: rgb(254, 226, 52);"/>
    </g>
  </g>
  <g transform="matrix(5.046086311340332, 0, 0, 5.184647560119629, -1374.8582763671875, -2850.4192346364207)" filter="url(#glow)">
    <g>
      <path d="M304.48489,617.04395c-0.1665,0-0.33154,0-0.49609-0.00195
			c-1.10449-0.01074-1.99121-0.91406-1.98096-2.01855c0.01025-1.10547,0.88379-1.96973,2.01904-1.98145
			c5.62891,0.07129,10.55908-0.84961,11.8877-1.7168c0.92627-0.60254,2.16553-0.34277,2.76807,0.58203
			c0.60352,0.9248,0.34326,2.16406-0.58154,2.76758C315.57523,616.32324,309.53519,617.04395,304.48489,617.04395z" style="fill: rgb(254, 226, 52);"/>
    </g>
  </g>
  <g transform="matrix(5.046086311340332, 0, 0, 5.184647560119629, -1374.8582763671875, -2850.4192346364207)" filter="url(#glow)">
    <g>
      <path d="M326.00784,587.00098c-0.81934,0-1.58789-0.50781-1.88184-1.32324
			c-0.37402-1.03906,0.16504-2.18457,1.2041-2.55957c2.82422-1.01758,5.52637-1.28516,8.13965-1.54492
			c4.25684-0.42188,8.27832-0.82129,12.78027-4.46191c0.8584-0.69434,2.11816-0.55957,2.81348,0.29785
			c0.69434,0.85938,0.56055,2.11816-0.29785,2.81348c-5.43262,4.3916-10.46289,4.89062-14.90137,5.33105
			c-2.47949,0.24609-4.82031,0.47852-7.17871,1.32812C326.46194,586.96191,326.23343,587.00098,326.00784,587.00098z" style="fill: rgb(254, 226, 52);"/>
    </g>
  </g>
  <g transform="matrix(5.046086311340332, 0, 0, 5.184647560119629, -1374.8582763671875, -2850.4192346364207)" filter="url(#glow)">
    <g>
      <path d="M279.81644,631.03027c-0.74756,0-1.53027-0.17383-2.34814-0.59863
			c-0.97949-0.50977-1.36084-1.71777-0.85059-2.69727c0.50928-0.98047,1.71729-1.36035,2.69727-0.85156
			c0.6792,0.35645,1.33789,0.04004,3.23779-1.22168c2.07324-1.37793,4.91553-3.25977,8.90283-2.64355
			c1.0918,0.16992,1.83887,1.19238,1.66895,2.28418c-0.16943,1.0918-1.18896,1.83496-2.2832,1.66895
			c-2.46191-0.3877-4.21436,0.78613-6.07471,2.02148C283.35648,629.92969,281.69974,631.03027,279.81644,631.03027z" style="fill: rgb(254, 226, 52);"/>
    </g>
  </g>
  <g transform="matrix(5.046086311340332, 0, 0, 5.184647560119629, -1374.8582763671875, -2850.4192346364207)" filter="url(#glow)">
    <g>
      <path d="M326.00784,587h-8c-1.10449,0-2-0.89551-2-2v-5c0-1.10449,0.89551-2,2-2s2,0.89551,2,2v3h4.22363
			c0.28906-2.49414,0.77637-6.95996,0.77637-8.75c0-4.33887-0.62793-15.73438-0.88672-20.25h-4.22119l-0.89502,16.11133
			c-0.06152,1.10156-1.01758,1.93945-2.10791,1.88574c-1.10303-0.06152-1.94727-1.00488-1.88623-2.1084l1-18
			C316.06985,550.8291,316.94632,550,318.00784,550h8c1.05859,0,1.93359,0.82422,1.99609,1.87988
			c0.04102,0.68457,1.00391,16.81152,1.00391,22.37012c0,2.7793-0.97363,10.66211-1.01562,10.99609
			C327.86819,586.24805,327.01761,587,326.00784,587z" style="fill: rgb(254, 226, 52);"/>
    </g>
  </g>
  <g transform="matrix(5.046086311340332, 0, 0, 5.184647560119629, -1374.8582763671875, -2850.4192346364207)" filter="url(#glow)">
    <g>
      <path d="M327.00784,620c-1.10449,0-2-0.89551-2-2v-5.25c0-1.59375-1.26172-2.75-3-2.75s-3,1.15625-3,2.75V618
			c0,1.10449-0.89551,2-2,2s-2-0.89551-2-2v-5.25c0-3.78516,3.07471-6.75,7-6.75c3.9248,0,7,2.96484,7,6.75V618
			C329.00784,619.10449,328.11234,620,327.00784,620z" style="fill: rgb(254, 226, 52);"/>
    </g>
  </g>
  <g transform="matrix(5.046086311340332, 0, 0, 5.184647560119629, -1374.8582763671875, -2850.4192346364207)" filter="url(#glow)">
    <g>
      <path d="M339.00784,639.99707c-1.28027,0-2.56055-0.4873-3.53516-1.46191
			c-1.94922-1.94922-1.94922-5.12109,0-7.07031s5.12109-1.94922,7.07031,0s1.94922,5.12109,0,7.07031
			C341.56839,639.50977,340.28812,639.99707,339.00784,639.99707z M339.00784,634.00098c-0.25586,0-0.51172,0.09766-0.70703,0.29199
			c-0.38965,0.38965-0.38965,1.02441,0,1.41406c0.39062,0.38867,1.02344,0.38867,1.41406,0
			c0.38965-0.38965,0.38965-1.02441,0-1.41406C339.51956,634.09863,339.2637,634.00098,339.00784,634.00098z" style="fill: rgb(254, 226, 52);"/>
    </g>
  </g>
  <g transform="matrix(5.046086311340332, 0, 0, 5.184647560119629, -1374.8582763671875, -2850.4192346364207)" filter="url(#glow)">
    <g>
      <path d="M336.00784,637h-24c-1.10449,0-2-0.89551-2-2s0.89551-2,2-2h24c1.10449,0,2,0.89551,2,2
			S337.11234,637,336.00784,637z" style="fill: rgb(254, 226, 52);"/>
    </g>
  </g>
  <g transform="matrix(5.046086311340332, 0, 0, 5.184647560119629, -1374.8582763671875, -2850.4192346364207)" filter="url(#glow)">
    <g>
      <path d="M303.83499,636.17188c-0.41895,0-0.8418-0.13086-1.20215-0.40234
			c-0.88232-0.66504-1.05859-1.91895-0.39355-2.80078l9.17139-12.17188c0.66357-0.88379,1.91846-1.06055,2.80078-0.39453
			c0.88232,0.66504,1.05859,1.91895,0.39355,2.80078l-9.17139,12.17188
			C305.04056,635.89746,304.44144,636.17188,303.83499,636.17188z" style="fill: rgb(254, 226, 52);"/>
    </g>
  </g>
  <g transform="matrix(5.046086311340332, 0, 0, 5.184647560119629, -1374.8582763671875, -2850.4192346364207)" filter="url(#glow)">
    <g>
      <path d="M337.18167,634.17188c-0.64453,0-1.27734-0.31055-1.66309-0.88672l-10.17188-15.17188
			c-0.61523-0.91699-0.37012-2.15918,0.54785-2.77441c0.91699-0.61719,2.16016-0.37109,2.77441,0.54785l10.17188,15.17188
			c0.61523,0.91699,0.37012,2.15918-0.54785,2.77441C337.9512,634.0625,337.56448,634.17188,337.18167,634.17188z" style="fill: rgb(254, 226, 52);"/>
    </g>
  </g>
  <g transform="matrix(5.046086311340332, 0, 0, 5.184647560119629, -1374.8582763671875, -2850.4192346364207)" filter="url(#glow)">
    <g>
      <path d="M322.01028,637c-0.06641,0-0.13379-0.00293-0.20166-0.00977
			c-1.09912-0.11035-1.90088-1.08984-1.79102-2.18945l1-10c0.11035-1.09863,1.08545-1.89746,2.18945-1.79102
			c1.09863,0.11035,1.90039,1.08984,1.79102,2.18945l-1,10C323.89456,636.23047,323.02542,637,322.01028,637z" style="fill: rgb(254, 226, 52);"/>
    </g>
  </g>
  <g transform="matrix(5.046086311340332, 0, 0, 5.184647560119629, -1374.8582763671875, -2850.4192346364207)" filter="url(#glow)">
    <g>
      <path d="M316.00589,636c-0.93408,0-1.76904-0.65723-1.95898-1.60742l-1-5
			c-0.2168-1.08301,0.48535-2.13672,1.56885-2.35352c1.08594-0.21387,2.13672,0.48633,2.35303,1.56836l1,5
			c0.2168,1.08301-0.48535,2.13672-1.56885,2.35352C316.26761,635.9873,316.13577,636,316.00589,636z" style="fill: rgb(254, 226, 52);"/>
    </g>
  </g>
  <g transform="matrix(5.046086311340332, 0, 0, 5.184647560119629, -1374.8582763671875, -2850.4192346364207)" filter="url(#glow)">
    <g>
      <path d="M328,637c-1.10449,0-2-0.89551-2-2v-5c0-1.10449,0.89551-2,2-2s2,0.89551,2,2v5
			C330,636.10449,329.10449,637,328,637z" style="fill: rgb(254, 226, 52);"/>
    </g>
  </g>
  <g transform="matrix(5.046086311340332, 0, 0, 5.184647560119629, -1374.8582763671875, -2850.4192346364207)" filter="url(#glow)">
    <g>
      <path d="M334,637c-1.10449,0-2-0.89551-2-2v-7c0-1.10449,0.89551-2,2-2s2,0.89551,2,2v7
			C336,636.10449,335.10449,637,334,637z" style="fill: rgb(254, 226, 52);"/>
    </g>
  </g>
  <g transform="matrix(5.046086311340332, 0, 0, 5.184647560119629, -1374.8582763671875, -2850.4192346364207)" filter="url(#glow)">
    <g>
      <path d="M296.9429,610.37012c-1.31152,0-2.45703-0.30176-3.32422-1.16895
			c-1.35205-1.35156-1.98242-3.11523-1.82227-5.10059c0.29688-3.68359,3.29541-7.39746,6.13574-9.44434
			c4.79834-3.45996,15.73291-3.90625,19.57568,0.26758l0,0c1.46045,1.58594,1.59131,5.21484,1.58008,6.70215
			c-0.00049,0.08398-0.00684,0.16797-0.01758,0.25098c-0.03857,0.28516-1.07031,6.98145-12.55811,6.98145
			c-1.35645,0-3.08252,0.38574-4.75195,0.75977C300.05325,609.99902,298.39603,610.37012,296.9429,610.37012z M296.39603,606.32031
			c0.67383,0.25098,3.05615-0.28516,4.49121-0.60645c1.88135-0.41992,3.82715-0.85547,5.625-0.85547
			c7.18262,0,8.4248-2.97168,8.57568-3.4502c-0.00977-1.5752-0.26123-3.33496-0.54834-3.80273
			c-2.27246-2.39453-10.77002-2.22559-14.26855,0.29492c-2.4375,1.75684-4.32471,4.5-4.4873,6.52148
			C295.72025,605.20801,295.91507,605.81348,296.39603,606.32031z" style="fill: rgb(254, 226, 52);"/>
    </g>
  </g>
  <g transform="matrix(5.046086311340332, 0, 0, 5.184647560119629, -1374.8582763671875, -2850.4192346364207)" filter="url(#glow)">
    <g>
      <path d="M345.43167,611.79688c-6.52734,0-16.3623-4.83691-18.56738-6.30957
			c-0.51855-0.34668-2.09766-1.40234-1.9248-7.9502c-0.0127-1.42676,0.11621-5.0752,1.5498-6.66699
			c3.80566-4.22852,14.62695-3.77539,19.375-0.27148c3.30762,2.44043,5.65723,8.50977,6.01758,12.96777
			c0.23828,2.96094-0.37012,5.27832-1.76172,6.70215C349.05179,611.36133,347.39066,611.79688,345.43167,611.79688z
			 M329.33401,602.32422c5.75293,3.71777,16.55273,6.55273,17.9248,5.14844c0.53516-0.54785,0.77246-1.8877,0.63574-3.58398
			c-0.30664-3.7959-2.40625-8.59668-4.40527-10.07129c-3.43262-2.53418-11.77441-2.70508-14.00293-0.29785
			c-0.29492,0.4873-0.56055,2.43945-0.54785,4.05469C328.89066,599.48633,329.07523,601.60547,329.33401,602.32422z" style="fill: rgb(254, 226, 52);"/>
    </g>
  </g>
  <g transform="matrix(5.046086311340332, 0, 0, 5.184647560119629, -1374.8582763671875, -2850.4192346364207)" filter="url(#glow)">
    <g>
      <path d="M341.12698,634.87891c-0.34082,0-0.68555-0.08691-1.00195-0.27051
			c-0.95508-0.55371-1.28027-1.77734-0.72559-2.7334l7.71191-13.29297c0.55371-0.95605,1.77832-1.2793,2.7334-0.72559
			s1.28027,1.77734,0.72559,2.7334l-7.71191,13.29297C342.48831,634.52246,341.81644,634.87891,341.12698,634.87891z" style="fill: rgb(254, 226, 52);"/>
    </g>
  </g>
  <g transform="matrix(5.046086311340332, 0, 0, 5.184647560119629, -1374.8582763671875, -2850.4192346364207)" filter="url(#glow)">
    <g>
      <path d="M300.918,571.43262c-0.48535,0-0.97217-0.17578-1.35693-0.53125
			c-0.81104-0.74902-0.86133-2.01465-0.11133-2.82617c4.43018-4.79492,8.6582-5.38184,14.50977-6.19531l1.63623-0.23047
			c1.09912-0.15234,2.10742,0.60059,2.26465,1.69434c0.15771,1.09277-0.60107,2.10742-1.69434,2.26465l-1.65576,0.2334
			c-5.58594,0.77637-8.66309,1.2041-12.12305,4.94824C301.99319,571.2168,301.45657,571.43262,300.918,571.43262z" style="fill: rgb(254, 226, 52);"/>
    </g>
  </g>
  <g transform="matrix(5.046086311340332, 0, 0, 5.184647560119629, -1374.8582763671875, -2850.4192346364207)" filter="url(#glow)">
    <g>
      <path d="M295.87991,579.22852c-0.25977,0-0.52441-0.05176-0.77881-0.15918
			c-1.01709-0.43066-1.49268-1.60449-1.06201-2.62109c0.4248-1.00391,0.91211-1.99414,1.44873-2.94434
			c0.54395-0.96094,1.76367-1.30078,2.7251-0.75781c0.96191,0.54297,1.30127,1.7627,0.7583,2.72461
			c-0.46289,0.81934-0.88281,1.67285-1.24854,2.53613C297.39993,578.76953,296.65921,579.22852,295.87991,579.22852z" style="fill: rgb(254, 226, 52);"/>
    </g>
  </g>
  <g transform="matrix(5.046086311340332, 0, 0, 5.184647560119629, -1374.8582763671875, -2850.4192346364207)" filter="url(#glow)">
    <g>
      <path d="M299.88724,631.87988c-0.79443,0-1.5459-0.47656-1.85791-1.25977l-1.7124-4.29297
			c-0.40967-1.02637,0.09033-2.18945,1.11621-2.59863c1.02686-0.41309,2.18945,0.08984,2.59912,1.11621l1.71191,4.29297
			c0.40967,1.02637-0.09033,2.18945-1.11621,2.59863C300.3848,631.83398,300.13382,631.87988,299.88724,631.87988z" style="fill: rgb(254, 226, 52);"/>
    </g>
  </g>
  <g transform="matrix(5.046086311340332, 0, 0, 5.184647560119629, -1374.8582763671875, -2850.4192346364207)" filter="url(#glow)">
    <g>
      <path d="M350.10257,634.95703c-0.9668,0-1.81738-0.70312-1.97266-1.68848
			c-0.17188-1.09082,0.57324-2.11523,1.66406-2.28711c4.18066-0.65918,7.74902-1.45605,10.60645-2.36914
			c1.67969-0.53711,3.12695-1.11914,4.30078-1.72949c0.98145-0.50977,2.1875-0.12695,2.69727,0.85156
			c0.50977,0.98047,0.12793,2.1875-0.85156,2.69727c-1.375,0.71484-3.0332,1.38477-4.92871,1.99121
			c-3.05176,0.97461-6.82031,1.81836-11.20117,2.50977C350.31155,634.94922,350.20706,634.95703,350.10257,634.95703z" style="fill: rgb(254, 226, 52);"/>
    </g>
  </g>
  <g transform="matrix(5.046086311340332, 0, 0, 5.184647560119629, -1374.8582763671875, -2850.4192346364207)" filter="url(#glow)">
    <g>
      <path d="M322.00784,646c-11.85498,0-34.57666-1.38379-44.53955-6.56836
			c-2.70117-1.40625-5.23538-4.93066-1.97562-13.73047L285,594.7002V589c0-18.73926,14.03564-34.53418,32.64355-36.74121
			c1.09619-0.12109,2.09378,0.65332,2.22318,1.75098c0.13037,1.09668-0.65628,2.0918-1.75345,2.22168
			C301.51758,558.19922,289,572.28711,289,589v6.2998l-9.73779,31.74121c-0.82666,2.21973-2.47507,7.52734,0.05081,8.8418
			C288.59036,640.71191,310.51517,642,322.00687,642c11.49219,0,33.41553-1.28809,42.69287-6.11719
			c2.52637-1.31445,0.87622-6.62207,0.05005-8.8418l-0.0419-0.11133L355,595.2998V589c0-8.34863-3.00195-14.83008-10.0459-21.67285
			c-4.37988-4.25391-11.25583-9.61426-19.15427-10.98926c-1.08887-0.18945-1.81641-1.22559-1.62695-2.31348
			c0.19043-1.08789,1.21924-1.80957,2.31396-1.62793c8.9043,1.55078,16.47092,7.41504,21.25412,12.06152
			C355.53003,572.02441,359,579.59277,359,589v5.7002l9.51562,31.00098c3.25879,8.7998,0.7305,12.32422-1.9697,13.73047
			C356.58304,644.61621,333.86331,646,322.00784,646z" style="fill: rgb(254, 226, 52);"/>
    </g>
  </g>
  <g transform="matrix(5.046086311340332, 0, 0, 5.184647560119629, -1374.8582763671875, -2850.4192346364207)" filter="url(#glow)">
    <g>
      <path d="M357.00882,597c-0.75586,0-1.47852-0.42969-1.81641-1.16016l0,0
			c-0.02051-0.04395-2.08691-4.39746-6.77637-7.57324c-0.91406-0.62012-1.15332-1.86328-0.53418-2.77832
			c0.61914-0.91309,1.86328-1.15332,2.77832-0.53418c5.65137,3.83008,8.06543,8.99414,8.16504,9.21191
			c0.46094,1.00391,0.02051,2.19141-0.9834,2.65137C357.57132,596.94141,357.28812,597,357.00882,597z" style="fill: rgb(254, 226, 52);"/>
    </g>
  </g>
  <g transform="matrix(5.046086311340332, 0, 0, 5.184647560119629, -1374.8582763671875, -2850.4192346364207)" filter="url(#glow)">
    <g>
      <path d="M287.00638,597c-0.27881,0-0.56201-0.05859-0.83252-0.18262
			c-1.00391-0.45996-1.44434-1.64746-0.98389-2.65137c0.09033-0.19824,9.3833-19.7334,33.49561-11.04785
			c1.03955,0.375,1.57812,1.52051,1.20361,2.55957c-0.37402,1.04004-1.52148,1.57617-2.55908,1.2041
			c-20.70117-7.46191-28.1958,8.27832-28.50439,8.95215C288.48929,596.56738,287.76419,597,287.00638,597z" style="fill: rgb(254, 226, 52);"/>
    </g>
  </g>
</svg>