<?xml version="1.0"?>
<svg width="24" height="24" xmlns="http://www.w3.org/2000/svg" xmlns:svg="http://www.w3.org/2000/svg">
 <g>
  <title>Layer 1</title>
  <g id="svg_1">
   <path fill="#FEE234" id="svg_2" d="m22.646,10.646l-10.646,10.646999l-10.646,-10.646999c-0.195,-0.195 -0.512,-0.195 -0.707,0s-0.195,0.512 0,0.707l11,11.000001c0.097,0.098 0.224998,0.146999 0.353,0.146999s0.256,-0.049 0.354,-0.146l11,-11c0.195,-0.195 0.195,-0.512 0,-0.707s-0.512001,-0.196 -0.708,-0.001z"/>
   <path fill="#FEE234" id="svg_3" d="m11.646,13.354c0.098001,0.097 0.226,0.146 0.354,0.146s0.256,-0.049 0.354,-0.146l11,-11c0.195,-0.195 0.195,-0.512 0,-0.707s-0.512001,-0.195 -0.707001,0l-10.646999,10.646l-10.646,-10.647c-0.195,-0.195 -0.512,-0.195 -0.707,0s-0.195,0.512 0,0.707l10.998998,11.001l0.000001,0l0.000001,0z"/>
  </g>
 </g>
</svg>