<?xml version="1.0"?>
<svg width="1000" height="1000" xmlns="http://www.w3.org/2000/svg" xmlns:svg="http://www.w3.org/2000/svg">
 <g>
  <title>Layer 1</title>
  <g display="none" id="Layer_1">
   <g id="svg_1" display="inline">
    <path id="svg_2" d="m832.640015,997.176025c-224.161011,0 -448.321991,0 -672.481995,0c-1.408005,-3.484009 -1.891006,-8.85199 -4.404999,-10.090027c-6.610001,-3.248962 -14.050995,-4.902954 -21.264999,-6.79895c-4.514008,-1.187012 -9.294998,-1.347046 -13.815002,-2.519043c-10.100998,-2.61499 -14.606003,0.636047 -14.662003,10.869995c-0.014999,2.847046 -0.372993,5.69104 -0.573997,8.537048c-15.600998,0 -31.200996,0.032959 -46.799999,-0.062012c-1.202999,-0.007019 -2.400002,-0.89801 -3.601002,-1.377991c0.669003,-1.700012 1.490002,-3.358032 1.984001,-5.106995c4.115002,-14.552002 7.799004,-29.237 12.341003,-43.653015c5.032997,-15.975037 10.866997,-31.695984 16.289993,-47.549988c5.434006,-15.888 10.555,-31.886047 16.239006,-47.683044c6.778,-18.839966 14.000999,-37.519958 21.042999,-56.263977c3.716995,-9.892029 7.534996,-19.745972 11.174004,-29.664978c6.835999,-18.632019 14.360001,-37.061035 20.132996,-56.020996c5.584,-18.33905 9.880005,-37.127014 13.654999,-55.938049c2.031006,-10.122986 2.757004,-20.528992 -1.334,-30.912964c-7.151993,-18.145996 1.856003,-38.427979 15.268005,-47.865967c11.268997,-7.932007 22.256989,-16.324036 32.776001,-25.213013c2.455994,-2.075012 4.384995,-7.666992 3.363998,-10.484009c-5.775009,-15.937988 0.728989,-28.608032 10.345001,-39.892029c8.901001,-10.444 18.934998,-19.998993 29.044983,-29.320007c13.161011,-12.132996 27.674011,-22.373993 44.410004,-29.298981c4.119995,-1.705017 8.356995,-4.554993 11.02002,-8.040009c4.654999,-6.095001 7.061981,-14.134003 12.304993,-19.51001c15.039001,-15.417999 28.842987,-31.71698 39.647003,-50.325989c6.867981,-11.830994 13.679993,-23.865997 18.783997,-36.507904c7.333008,-18.163879 12.777008,-37.079773 19.623993,-55.452637c4.667999,-12.527924 8.468994,-26.024902 16.069,-36.646912c9.121002,-12.748993 21.166016,-23.724014 33.207001,-33.986038c18.03299,-15.368042 40.641998,-21.330078 63.418976,-22.408066c30.91803,-1.463013 59.155029,8.69902 82.735046,29.237091c15.133972,13.181015 28.617004,27.944016 34.382996,48.057022c3.653992,12.74791 6.572998,25.80983 11.463013,38.07576c7.792969,19.549866 16.075989,39.011749 25.773987,57.666687c10.395996,20 22.680969,38.988007 39.487976,54.562988c8.02002,7.432007 15.942993,14.927002 19.207031,26.100006c0.802979,2.747009 3.997986,5.324005 6.719971,6.886993c10.285034,5.904999 21.158997,10.82901 31.200989,17.098999c18.632996,11.632019 33.822998,27.407013 47.799011,44.022003c8.747986,10.400024 14.822998,22.94104 9.867004,37.530029c-2.854004,8.401978 0.59198,14.015015 7.046997,18.968018c10.020996,7.687988 19.687988,15.837952 29.716003,23.519958c12.857971,9.851013 16.432983,27.484009 11.075012,41.289001c-6.73999,17.367981 -14.018005,34.182007 -7.281006,53.497986c6.604004,18.939026 11.265991,38.596985 18.559998,57.243042c7.994019,20.434998 18.864014,39.740967 26.917969,60.156982c6.993042,17.724976 13.314026,35.992981 17.219055,54.59198c5.763,27.450989 9.633972,55.340027 13.31897,83.174011c2.569031,19.397034 3.445007,39.018982 5.179993,58.530029c0.182983,2.062988 1.052002,4.063965 1.604004,6.094971c0.880981,4.442017 -2.492004,2.824036 -4.320007,2.830994c-20.159973,0.079041 -40.320007,0.049011 -60.47998,0.049011c0.098999,-2.119995 0.195007,-4.240967 0.294006,-6.359985c-2.151001,0.408997 -4.487,0.424988 -6.411987,1.32196c-2.911011,1.357056 -5.535034,3.328003 -8.281006,5.038025c-0.960999,0 -1.920044,0 -2.880005,0c-8.117004,-8.469971 -7.429016,-8.104004 1.666016,-16.099976c5.587952,-4.915039 19.440979,-5.322998 12.661987,-19.541016c-2.139038,-4.484985 -4.054993,-5.070007 -7.132019,-3.507996c-14.031982,7.130005 -28.520996,13.531006 -38.781006,26.450012c-3.492981,4.403931 -4.777039,7.999939 -1.533997,12.701965zm-410.269012,-229.567017c-39.256989,-8.455017 -68.157013,-30.247009 -93.386017,-56.994019c0.513,6.901001 1.002014,13.096008 1.422028,19.296021c0.194977,2.867981 -0.569,6.109009 0.513,8.559998c6.174988,13.991028 12.402985,28.106995 23.516998,39.044006c6.73999,6.632996 13.742981,13.257996 21.579987,18.447998c8.213013,5.440002 17.213013,10.210022 26.520996,13.326965c8.549011,2.861023 17.966003,3.133057 26.067017,4.399048c3.048004,1.737 5.871002,2.747009 7.860992,4.633972c2.502991,2.372986 6.169006,5.64502 5.92099,8.195984c-0.246979,2.546021 -4.648987,6.561035 -7.338989,6.650024c-8.583008,0.286011 -17.651001,1.5 -25.313995,-4.507019c-1.152008,-0.902954 -3.22702,-0.540955 -4.802002,-1.010986c-7.609009,-2.27301 -16.126007,-3.162964 -22.58902,-7.27002c-12.715973,-8.078979 -24.517975,-17.679993 -36.217987,-27.237c-4.582001,-3.742004 -7.875,-9.061951 -12.915009,-15.039001c0,4.190002 -0.197998,6.92804 0.036011,9.627014c0.772003,8.884033 2.921997,17.862 2.141998,26.588989c-0.52301,5.863037 1.266998,6.330994 5.569,6.89801c5.082001,0.670044 10.175995,1.507019 15.131012,2.791992c4.513,1.170044 7.60199,4.936035 5.631989,9.082031c-1.355011,2.85199 -5.709015,5.02002 -9.140991,5.945007c-3.809998,1.026978 -8.125,0.627991 -12.163025,0.247009c-5.233978,-0.493042 -7.68399,1.045959 -6.90097,6.68396c1.130981,8.140991 1.638977,16.380005 3.080994,24.458008c0.813995,4.554993 4.348999,6.059021 9.365997,5.179993c-1.899994,-3.117004 -4.027008,-5.317993 -4.601013,-7.868958c-0.72998,-3.244019 6.914001,-11.119019 10.151001,-11.229004c4.987,-0.171021 10.33902,5.110962 10.665009,10.526001c0.566986,9.43396 2.565002,10.770996 11.80899,7.899963c-9.515991,-6.937988 -9.386993,-8.713013 0.985016,-14.133972c0.623993,-0.325989 1.118988,-1.288025 1.674988,-1.290039c3.649994,-0.011963 8.067993,-1.046997 10.718018,0.639038c2.277985,1.448975 2.944,6 3.529999,9.31897c0.319,1.812988 -1.008026,3.916992 -1.708008,6.281006c4.984985,0 9.470001,0 12.673981,0c-1.007996,-3.226013 -3.23999,-6.494019 -2.612,-9.065979c2.018005,-8.264038 9.357025,-9.562988 16.292023,-11.088013c0.917999,2.13501 1.751984,3.833008 2.382996,5.604004c0.695984,1.953979 2.171997,4.296997 1.63501,5.914001c-3.004028,9.031006 0.113983,9.96698 8.784973,9.411987c18.110016,-1.158997 36.353027,-0.140991 54.5,-0.937988c4.482025,-0.197021 10.666016,-2.786011 12.798004,-6.27301c3.759003,-6.148987 6.778015,-13.804993 6.904999,-20.885986c0.221008,-12.325012 7.359009,-22.898987 6.308014,-35.739014c-0.804016,-9.812988 4.35199,-19.96698 4.921021,-30.076965c0.813965,-14.472046 2.544983,-29.172058 -4.795013,-43.131042c-2.406006,-4.576965 -1.182007,-10.971008 -2.182007,-16.430969c-0.364014,-1.985046 -2.372009,-3.671021 -4.138,-6.229004c-2.785004,5.117004 -4.778992,8.779968 -7.602997,13.968994c-1.442993,-8.401978 -2.524017,-14.692993 -3.628021,-21.116028c3.024017,0.532043 5.176025,0.910034 7.328003,1.288025c-0.569,-2.018982 -0.52298,-4.638 -1.810974,-5.952026c-6.150024,-6.284973 -12.203003,-12.84198 -19.244019,-18c-3.384003,-2.479004 -9.359009,-3.778992 -13.324005,-2.656006c-11.043976,3.129028 -21.605988,3.771057 -32.403992,-0.392944c-1.006012,-0.388 -2.641998,0.427979 -3.828003,1.005981c-9.049011,4.414978 -17.833008,5.646973 -27.970001,2.175964c-7.803009,-2.671997 -17.145996,-4.317993 -24.993988,-2.638977c-14.660004,3.138 -28.737,2.108032 -44.036987,-0.291016c2.256989,4.342041 3.60199,9.145996 6.644989,12.322998c6.727997,7.025024 13.985992,13.644043 21.627991,19.666016c8.505005,6.703003 17.182007,13.48999 26.683014,18.552979c12.056,6.424011 24.882996,11.495056 37.643005,16.473022c7.229004,2.820007 14.877991,4.981018 22.535004,6.192993c10.602997,1.67804 21.382996,2.289001 32.103973,3.153015c6.70401,0.541016 10.688019,4.012024 10.574005,9.718994c-0.140991,7.127014 -4.643005,8.940002 -10.640991,8.338989c-7.730988,-0.776001 -15.440002,-1.81897 -23.127991,-2.951965c-4.113007,-0.606995 -8.128998,-1.882019 -12.246002,-2.434021c-6.662018,-0.893982 -13.041992,-6.098999 -20.261017,-0.598022c-1.806976,1.377014 -5.78598,-0.097961 -8.766998,-0.261963c0,-0.689026 -0.000977,-1.381042 -0.001984,-2.070007c2.054993,-0.656006 4.108978,-1.314026 8.458984,-2.708008zm-99.011993,-295.165009c0.278015,0.042999 0.556,0.088013 0.834015,0.131989c0.495972,1.723999 0.774994,3.575012 1.64798,5.081024c0.212006,0.362976 2.701996,-0.019012 3.617004,-0.734009c6.181,-4.833008 12.306,-9.746002 18.290009,-14.821014c21.773987,-18.462982 32.841003,-43.576996 41.970001,-69.559998c4.286987,-12.203003 6.005981,-25.056976 11.096985,-37.359985c7.175995,-17.343994 17.703003,-31.748901 30.016022,-45.197815c4.743988,-5.180969 10.606995,-9.479919 16.428986,-13.500916c14.269989,-9.855927 30.19101,-16.039886 47.088013,-19.708862c6.109985,-1.326996 12.871979,-1.674988 11.007996,-10.957947c-0.167023,-0.825989 0.483002,-1.795959 0.664001,-2.715973c1.812988,-9.231949 4.757996,-18.42395 5.112,-27.713943c0.437988,-11.51001 -1.57901,-23.093002 -1.968018,-34.66304c-0.322998,-9.637039 -0.341003,-10.882034 -9.542999,-9.327042c-8.417999,1.423019 -16.457001,5.249023 -24.574982,8.252029c-16.34201,6.048019 -29.549011,16.788055 -39.821014,30.348053c-7.268005,9.593994 -12.696991,20.772003 -17.751984,31.790955c-3.978027,8.671936 -6.183014,18.163879 -9.081024,27.320831c-3.098999,9.789917 -5.272003,19.966858 -9.313995,29.342804c-6.132996,14.225922 -13.255005,28.050842 -20.485992,41.767853c-4.920013,9.330994 -9.821014,18.929016 -16.376007,27.084991c-10.712982,13.32901 -23.113983,25.292023 -34.048004,38.458008c-3.319977,3.998993 -5.556,9.989014 -5.830994,15.196991c-0.556,10.446014 0.583008,20.984009 1.022003,31.485016zm235.369019,-76.014984c-3.239014,14.526001 17.700989,43.507996 35.588989,48.977997c2.006042,-3.484985 4.338989,-6.809998 5.94104,-10.455994c4.579956,-10.423004 8.424988,-21.190002 13.388977,-31.419006c4.94397,-10.190002 9.770996,-20.848999 6.526978,-31.803986c-4.513,-15.248016 -11.268005,-29.274017 -28.375,-35.734985c-11.34198,-4.283966 -21.927002,-4.509949 -33.33197,-1.869965c-11.504028,2.661957 -23.187012,4.553955 -34.804016,6.71994c-0.900024,0.167999 -1.904968,-0.108978 -2.84198,-0.28299c-4.621033,-0.851013 -9.239014,-1.712982 -13.851013,-2.612976c-10.93399,-2.130981 -21.789001,-4.836975 -32.80899,-6.324951c-31.548004,-4.263 -60.742004,24.228912 -52.14801,55.822906c3.687988,13.555023 10.477997,26.281006 16.056,39.300018c2.90799,6.787994 6.244995,13.391998 9.484009,20.279999c3.192993,-1.447021 4.803986,-1.947998 6.166992,-2.830017c15.200989,-9.836975 25.143005,-23.798981 31.127991,-40.638977c0.77301,-2.174011 0.437012,-5.834015 -0.962982,-7.327026c-1.027008,-1.095978 -4.844025,-0.309998 -7.056,0.558014c-14.08902,5.528992 -29.628998,-3.959991 -28.275024,-18.22699c1.508026,-15.881012 11.438019,-21.979004 28.45401,-17.565002c23.330017,6.052979 46.453033,8.273987 70.076996,2.815002c4.612,-1.06601 9.301025,-3.071014 13.85498,-2.821014c6.82605,0.375 12.780029,-5.218994 20.425049,-1.02301c6.534973,3.587006 15.156006,12.953003 13.643982,20.230011c-1.731018,8.332001 -8.262024,18.300995 -18.359985,18.307007c-5.959045,0.001984 -11.919067,-1.334015 -17.921021,-2.074005zm276.014954,369.851013c-8.492004,2.580017 -17.319031,4.731995 -25.73999,7.952026c-10.463989,4.000977 -20.596008,8.872986 -30.864014,13.386963c-11.028992,4.850037 -10.843018,5.013 -6.710999,15.915039c5.47699,14.447998 10.78302,28.97998 15.531006,43.680969c5.994019,18.562988 11.416992,37.312988 16.945007,56.02301c1.458008,4.934021 3.078979,5.122986 7.591003,2.44397c14.427002,-8.562988 28.901001,-17.232971 45.570007,-21.026001c9.468994,-2.153992 10.704956,-5.333008 6.586975,-14.414978c-1.89801,-4.187012 -3.132996,-8.791016 -3.937988,-13.335999c-2.345032,-13.231995 -4.226013,-14.109009 -16.53302,-8.013977c-4.359009,2.158997 -9.151978,3.794983 -13.927979,4.589966c-1.786011,0.299011 -4.862,-2.05896 -5.89502,-3.984985c-0.786011,-1.463989 0.129028,-4.645996 1.369019,-6.195007c1.695984,-2.117981 4.27301,-3.684998 6.731018,-5.01001c6.563965,-3.537964 13.265991,-6.82196 18.867981,-9.674988c-2.090027,-6.393982 -3.799988,-11.630005 -5.811035,-17.781982c-1.643982,0 -5.502991,-0.960999 -8.57196,0.187988c-7.679993,2.874023 -14.973022,6.766968 -22.476013,10.130005c-5.507996,2.471008 -9.307007,0.223999 -8.523987,-5.820007c0.395996,-3.078979 2.958008,-7.130005 5.653015,-8.426025c7.545959,-3.625977 15.780945,-5.790955 23.5,-9.102966c2.201965,-0.945984 5.208984,-3.997009 5.033997,-5.812012c-0.755005,-7.861023 -2.552002,-15.623047 -4.387024,-25.710999zm-324.249969,-138.20105c-0.838989,-1.435974 -1.015991,-2.090027 -1.27301,-2.124023c-1.880981,-0.242004 -3.796997,-0.618958 -5.665985,-0.475952c-18.308014,1.395996 -36.759003,-2.751038 -55.097992,2.425964c-5.404022,1.523987 -12.082001,-1.518005 -18.185028,-2.39801c-7.051971,-1.018982 -14.132996,-1.848999 -21.167999,-2.964966c-11.580994,-1.837036 -23.073975,-4.479004 -34.71698,-5.587036c-11.652008,-1.107971 -21.796021,-4.511963 -30.373993,-12.695007c-1.573029,-1.500977 -4.78302,-1.247986 -7.21402,-1.895996c-5.596985,-1.490967 -11.231995,-2.869995 -16.752991,-4.607971c-6.778015,-2.13501 -13.524017,-4.406982 -20.157013,-6.953979c-7.953979,-3.054993 -15.705994,-6.707031 -24.578003,-5.991028c-0.40799,0.03302 -0.799988,-1.172974 -1.362976,-1.406982c-6.723999,-2.794006 -13.479004,-5.513977 -20.226013,-8.252991c0.854996,4.687988 2.247009,7.64502 4.235016,10.122009c4.853973,6.044983 10.031982,11.829956 14.964996,17.812988c0.958984,1.164001 1.509979,2.713989 2.052002,4.159973c0.862976,2.30603 0.827972,5.630981 2.441986,6.862c12.867004,9.817993 24.144012,21.298035 35.437988,32.783997c0.805023,0.819031 1.862,1.77301 2.904999,1.919006c14.623016,2.039001 29.221039,4.526978 43.919006,5.637024c6.945007,0.521973 14.070007,-1.953003 21.157013,-2.548035c13.998993,-1.177979 28.041992,-1.83197 42.039001,-3.021973c7.419006,-0.631042 14.809998,-1.763 22.158997,-2.994995c4.208008,-0.705017 8.32901,-1.985046 12.450012,-3.147034c9.517975,-2.684998 18.993988,-5.52301 28.52298,-8.167969c8.044006,-2.234985 16.139008,-4.284973 24.488007,-6.489014zm-321.94101,256.756042c1.240005,-3.364014 1.395996,-6.096008 2.822998,-7.236023c4.884995,-3.902954 10.167007,-7.320984 15.391006,-10.786011c6.335999,-4.204956 6.264999,-11.009949 -0.322006,-14.428955c-5.024994,-2.608032 -9.940002,-5.631042 -15.255005,-7.436035c-9.75499,-3.312988 -19.653992,-6.406006 -29.713989,-8.560974c-8.029999,-1.720032 -16.378006,-2.343994 -24.605011,-2.526978c-2.630997,-0.059021 -7.205994,2.401978 -7.69899,4.471985c-4.295006,18.021973 -8.245003,36.148987 -11.505005,54.387024c-1.870003,10.461975 -2.247002,21.188965 -3.365997,31.790955c-0.120003,1.144043 -0.639,2.263 -1.082001,3.350037c-2.240005,5.48999 -0.267006,8.231995 5.826996,8.335999c13.720001,0.234985 27.615997,-1.249023 40.587006,5.394958c2.828995,1.450012 5.871002,0.77301 6.227997,-4.096985c0.419998,-5.729004 1.619003,-11.473999 3.126999,-17.034973c2.080002,-7.677002 4.763,-15.19104 7.514999,-23.798035c-7.987,0 -14.487991,0.47699 -20.856995,-0.237c-2.493011,-0.279968 -6.162003,-2.937988 -6.583008,-5.052979c-0.386993,-1.940979 2.414001,-5.914978 4.621002,-6.692017c5.028,-1.771973 10.578003,-2.995972 15.871002,-2.849976c6.501999,0.178955 12.959,1.980957 18.998001,3.005981zm544.536011,-162.655029c2.31897,4.562012 3.950989,7.690002 5.512024,10.85498c6.731995,13.656006 13.934998,27.113037 19.921997,41.090027c2.396973,5.598999 4.719971,5.455994 9.006958,3.338013c11.416992,-5.641052 22.75,-11.479004 34.369995,-16.669006c5.757996,-2.572021 12.020996,-4.092041 18.150024,-5.734009c7.916992,-2.122009 8.689026,-3.109985 5.174011,-10.059998c-4.010986,-7.924988 -8.105042,-15.833984 -12.697998,-23.426025c-4.707031,-7.778015 -8.603027,-8.120972 -15.38501,-1.973999c-4.830017,4.377014 -9.520996,8.914001 -14.179016,13.47699c-3.703979,3.626038 -7.883972,3.368042 -10.507996,-0.320984c-1.588013,-2.231018 -2.156006,-7.495972 -0.669006,-9.182007c4.830994,-5.479004 10.832031,-9.924988 16.361023,-14.794006c2.507019,-2.208984 4.963989,-4.479004 6.148987,-5.550964c-6.39801,-4.533997 -12.210999,-8.651001 -19.690002,-13.950989c-12.937988,10.253967 -27.129028,21.5 -41.515991,32.901978zm91.256958,251.546021c4.882019,-4.377991 9.075012,-9.437988 14.390991,-12.63501c11.195007,-6.731995 22.968994,-12.507996 34.526001,-18.632996c4.526001,-2.398987 10.411987,-13.14502 7.612,-16.276001c-5.524963,-6.180969 -3.606995,-12.94397 -4.041992,-19.679016c-0.46698,-7.263 -4.83197,-11.050964 -10.79303,-9.670959c-4.330994,1.001953 -8.927979,1.566956 -12.859985,3.461975c-15.018005,7.236023 -29.812988,14.932007 -43.982971,22.098022c5.27301,17.868958 10.101013,34.227966 15.148987,51.333984zm-307.920959,-510.516998c-2.112976,0.240997 -4.556,1.141998 -6.684998,0.65799c-11.447998,-2.602997 -23.003998,-3.66098 -34.652008,-2.471985c-4.542999,0.464996 -9.036987,1.964996 -13.360992,3.527985c-0.838013,0.302002 -1.531006,3.399017 -0.998016,4.661011c1.694,4.006012 4.321014,7.619995 6.004028,11.630005c4.46698,10.644012 8.306976,21.562988 13.078979,32.063019c1.783997,3.925964 5.149017,7.346008 8.455994,10.23999c1.003021,0.877991 5.040009,-0.031006 6.292023,-1.39801c6.289001,-6.867004 12.85498,-12.692993 22.885986,-13.093994c5.64801,-0.22702 11.267029,-1.234009 16.229004,-1.812012c1.21698,-2.632996 2.153015,-4.888 3.275024,-7.04599c4.104004,-7.902008 -0.028015,-18.942993 -8.071045,-21.774994c-1.247009,-0.438019 -2.437988,-1.512024 -3.263,-2.591003c-3.132019,-4.104004 -6.10199,-8.330017 -9.190979,-12.59201zm-352.707031,288.082001c2.270004,0 4.490997,0.267029 6.621994,-0.060974c3.476013,-0.533997 6.936005,-2.243042 10.326996,-2.062012c8.950012,0.477966 18.003006,1.013 26.749008,2.815002c10.048004,2.06897 19.806,5.544006 29.701996,8.364014c2.173004,0.618958 4.399994,1.052002 6.600998,1.569946c-0.041992,-2.107971 -0.076004,-4.21698 -0.126999,-6.324951c-0.093994,-3.833008 0.022003,-7.688049 -0.380997,-11.488037c-0.235001,-2.216003 -0.927002,-4.57196 -2.072998,-6.467957c-3.813004,-6.30603 -7.99501,-12.389038 -11.880005,-18.653015c-1.240005,-2 -1.414001,-5.031006 -3.065994,-6.346008c-10.96701,-8.729004 -24.408005,-6.315979 -36.972992,-7.257996c-5.384003,-0.403015 -9.251007,3.432983 -11.265015,8.916016c-4.377991,11.921936 -9.098984,23.715942 -14.235992,36.995972zm-17.065002,39.586975c3.043991,-0.48999 5.595001,-1.083008 8.177002,-1.286011c14.304001,-1.125 28.291992,0.453979 41.904999,5.104004c11.529999,3.937988 23.044998,7.922974 34.62999,11.695007c5.363007,1.747009 8.037003,-1.166992 9.088013,-6.129028c1.26799,-5.982971 2.508987,-11.971985 4.022995,-19.207947c-10.854004,-10.077026 -26.263,-12.64801 -40.800995,-16.200012c-8.598999,-2.101013 -18.144012,-1.140015 -27.170013,-0.411011c-6.431992,0.52002 -14.178986,1.195007 -18.679993,4.971985c-5.397995,4.528015 -7.994995,12.413025 -11.712997,18.895996c-0.252991,0.442017 0.257004,1.323059 0.541,2.567017zm86.205002,33.353027c0.511993,0.632019 0.069,-0.319031 -0.677002,-0.775024c-16.972992,-10.363953 -35.528,-16.384949 -55.161987,-18.494995c-9.715012,-1.042969 -19.644012,-0.401978 -29.463013,-0.096985c-8.793991,0.272034 -13.50499,5.815979 -12.171997,12.244995c14.847,3.127014 29.505005,5.354004 43.628998,9.429993c14.057007,4.05603 27.578003,9.967041 41.687012,15.195007c3.244995,-4.669983 7.312988,-10.526978 12.15799,-17.502991zm575.526993,-313.977966c-0.862976,-2.716034 -0.893005,-3.736023 -1.413025,-4.314026c-19.860962,-22.059021 -42.330994,-40.876007 -68.638977,-54.872009c-3.661011,-1.947998 -4.68103,0.002991 -4.718994,3.381012c-0.057983,5.257996 -0.109985,10.52298 -0.380981,15.77298c-0.21405,4.111023 1.758972,4.923004 5.545959,5.52002c9.02002,1.423004 18.038025,3.233002 26.804016,5.761993c7.465027,2.153992 15.002014,5.348999 19.25,12.298004c5.312012,8.689972 14.218018,11.061981 23.552002,16.452026zm-561.83699,-16.220032c0.697998,0.993011 1.395004,1.984985 2.093002,2.979004c2.807999,-1.707001 5.785004,-3.188995 8.392975,-5.162018c10.180054,-7.701996 21.022034,-13.759979 34.10202,-14.654999c18.806976,-1.286987 19.223999,-1.707001 18.141998,-21.098999c-0.105011,-1.885986 -0.82901,-4.761993 -2.073975,-5.29599c-1.46701,-0.628998 -4.082001,0.364014 -5.735046,1.395996c-9.384979,5.858002 -19.059998,11.380005 -27.80899,18.095001c-9.51001,7.299988 -18.112976,15.777985 -27.111984,23.742004zm-80.973999,465.188965c-9.457993,-6.018005 -43.301994,-11.22998 -52.199989,-7.684021c-1.973007,0.786011 -3.521011,3.702026 -4.304016,5.971008c-0.40799,1.183044 0.958015,4.142029 2.075005,4.480042c4.470001,1.35498 9.139,2.09198 13.766006,2.879944c5.557999,0.946045 11.167999,1.58905 16.716995,2.587036c6.402008,1.150024 12.759995,2.546021 17.686996,3.541016c2.367004,-4.452026 4.197998,-7.896973 6.259003,-11.775024zm213.406021,-45.22699c0.005951,0.731995 0.011963,1.46698 0.018951,2.198975c3.788055,0.245056 8.002014,-0.498962 11.284058,0.91803c10.041992,4.335999 20.380981,5.817993 31.15799,5.434021c9.10202,-0.322998 17.431,1.315002 23.573975,9.008972c1.031982,1.29303 3.345001,2.601013 4.78299,2.340027c4.386047,-0.794006 9.345001,-1.363037 12.775024,-3.833008c5.667999,-4.083984 7.622009,-0.93103 9.569977,3.899963c4.917999,-5.996948 0.144043,-8.482971 -2.263,-10.95697c-2.983002,0.669006 -5.669952,2.177002 -7.705963,1.554016c-5.356049,-1.636047 -10.304993,-4.587036 -15.647003,-6.289001c-6.321045,-2.015015 -12.831024,-4.30603 -19.352997,-4.638c-13.873047,-0.704041 -27.807037,-0.244019 -41.713989,-0.195007c-2.161011,0.005981 -4.320038,0.362976 -6.480011,0.557983zm298.789978,8.796021c-4.770996,-1.380981 -8.582031,-2.805969 -12.520996,-3.562988c-10.846985,-2.087036 -23.249023,4.860962 -32.647034,-5.669983c-10.267944,0.182983 -20.940979,-2.236023 -30.778992,4.621948c1.019043,0.665039 1.525024,1.266052 2.087036,1.320007c10.633972,1.054016 21.278992,1.984009 31.903992,3.11499c1.377991,0.147034 3.010986,0.947998 3.916016,1.980042c4.522949,5.156006 9.245972,4.875977 14.992981,1.895996c1.987,-1.030029 5.369019,0.153015 7.958008,0.878967c3.401001,0.955017 6.771973,3.617004 9.916016,3.283997c1.859009,-0.195984 3.255981,-4.757996 5.172974,-7.862976zm50.747009,-214.648987c10.176025,-8.97699 19.687988,-17.367004 29.593018,-26.104004c-8.51001,-1.445984 -16.002014,-2.719971 -25.101013,-4.266968c-3.408997,2.875977 -6.19397,16.137939 -4.492004,30.370972z" clip-rule="evenodd" fill-rule="evenodd"/>
    <path id="svg_3" d="m832.640015,997.176025c-3.242004,-4.702026 -1.958984,-8.297974 1.534973,-12.697998c10.26001,-12.919006 24.749023,-19.320007 38.781006,-26.450012c3.077026,-1.562988 4.993042,-0.977966 7.132019,3.507996c6.778992,14.218018 -7.073975,14.626038 -12.661987,19.541016c-9.095032,7.995972 -9.78302,7.630005 -1.666016,16.099976c-11.041016,-0.000977 -22.080017,-0.000977 -33.119995,-0.000977z" fill="#FFFFFF" clip-rule="evenodd" fill-rule="evenodd"/>
    <path id="svg_4" d="m105.438004,997.176025c0.200996,-2.846008 0.558998,-5.690002 0.573997,-8.536987c0.055,-10.234009 4.560997,-13.484985 14.662003,-10.869995c4.519997,1.171997 9.301003,1.33197 13.814995,2.518982c7.212997,1.895996 14.654007,3.549988 21.264999,6.799011c2.514008,1.237976 2.997009,6.60498 4.404999,10.089966c-18.240997,-0.000977 -36.480995,-0.000977 -54.720993,-0.000977z" fill="#FFFFFF" clip-rule="evenodd" fill-rule="evenodd"/>
    <path id="svg_5" d="m868.640015,997.176025c2.745972,-1.710022 5.369995,-3.680969 8.281006,-5.038025c1.924988,-0.896973 4.260986,-0.912964 6.411987,-1.32196c-0.098999,2.118958 -0.195007,4.23999 -0.294006,6.359985c-4.799011,0 -9.601013,0 -14.398987,0z" fill="#FFFFFF" clip-rule="evenodd" fill-rule="evenodd"/>
    <path id="svg_6" d="m422.371002,767.609009c-4.351013,1.393982 -6.403992,2.052002 -8.457001,2.710022c0.001007,0.688965 0.001007,1.380981 0.001984,2.070007c2.981018,0.16394 6.960022,1.638977 8.767029,0.261963c7.218994,-5.500977 13.598999,-0.296021 20.260986,0.598022c4.117004,0.552002 8.132996,1.825989 12.246002,2.43396c7.687988,1.132996 15.397003,2.176025 23.127991,2.952026c5.998993,0.60199 10.5,-1.211975 10.641022,-8.338989c0.112976,-5.707031 -3.871002,-9.17804 -10.574005,-9.718994c-10.721008,-0.864014 -21.501007,-1.476013 -32.104004,-3.153015c-7.657013,-1.211975 -15.306,-3.372986 -22.535004,-6.192993c-12.759003,-4.978027 -25.585999,-10.049011 -37.643005,-16.473022c-9.501007,-5.062988 -18.178009,-11.849976 -26.682983,-18.552979c-7.641998,-6.022034 -14.900024,-12.640991 -21.628021,-19.666016c-3.041992,-3.177979 -4.386993,-7.981018 -6.644989,-12.322998c15.299011,2.398987 29.376984,3.429016 44.036987,0.291016c7.848022,-1.679993 17.19101,-0.03302 24.994019,2.638977c10.136993,3.471985 18.92099,2.239014 27.970001,-2.175964c1.186005,-0.578003 2.821991,-1.394043 3.828003,-1.006042c10.796997,4.164001 21.359985,3.520996 32.403992,0.393005c3.963989,-1.122986 9.940002,0.17804 13.324005,2.656006c7.041992,5.15802 13.093994,11.715027 19.243988,18c1.287994,1.314026 1.242004,3.934021 1.811005,5.952026c-2.152008,-0.377991 -4.304016,-0.756042 -7.328003,-1.288025c1.104004,6.423035 2.184998,12.713989 3.627991,21.116028c2.824005,-5.188049 4.817017,-8.852051 7.602997,-13.968994c1.766022,2.55896 3.77301,4.243958 4.138,6.228943c1,5.460022 -0.224976,11.854004 2.182007,16.43103c7.340027,13.958984 5.609009,28.658997 4.794983,43.130981c-0.56897,10.110046 -5.724976,20.264038 -4.92099,30.077026c1.052002,12.839966 -6.086975,23.414001 -6.307983,35.739014c-0.127014,7.080994 -3.145996,14.735962 -6.904999,20.885986c-2.132996,3.487 -8.31601,6.075989 -12.798004,6.27301c-18.147003,0.796997 -36.389008,-0.222046 -54.5,0.937988c-8.67099,0.554993 -11.789001,-0.380981 -8.785004,-9.411987c0.537994,-1.617004 -0.938995,-3.960022 -1.63501,-5.914001c-0.630981,-1.770996 -1.464996,-3.470032 -2.382996,-5.604004c-6.93399,1.524963 -14.273987,2.823975 -16.291992,11.088013c-0.627014,2.57196 1.604004,5.840942 2.612,9.065979c-3.20401,0 -7.688995,0 -12.674011,0c0.700012,-2.364014 2.028015,-4.468994 1.708008,-6.281006c-0.585999,-3.319031 -1.251007,-7.869995 -3.529999,-9.319031c-2.648987,-1.685974 -7.067993,-0.649963 -10.717987,-0.638977c-0.557007,0.002014 -1.052002,0.963989 -1.675018,1.289978c-10.371979,5.421021 -10.501007,7.196045 -0.984985,14.134033c-9.244019,2.869995 -11.242004,1.53302 -11.809021,-7.900024c-0.325989,-5.414978 -5.677979,-10.69696 -10.664978,-10.526001c-3.237,0.110046 -10.881012,7.985046 -10.151001,11.229004c0.574005,2.551025 2.700989,4.752014 4.600983,7.869019c-5.016998,0.879028 -8.552002,-0.625 -9.365997,-5.179993c-1.441986,-8.078003 -1.949982,-16.317017 -3.080994,-24.458008c-0.782013,-5.638 1.666992,-7.177002 6.901001,-6.684021c4.037994,0.381042 8.352997,0.780029 12.162994,-0.247009c3.431,-0.925964 7.786011,-3.093994 9.140991,-5.944946c1.970001,-4.145996 -1.118988,-7.912048 -5.631989,-9.082031c-4.954987,-1.284973 -10.049011,-2.122009 -15.130981,-2.791992c-4.302002,-0.567017 -6.09201,-1.034973 -5.569,-6.89801c0.779999,-8.72699 -1.370026,-17.705017 -2.142029,-26.588989c-0.233978,-2.698975 -0.03598,-5.437012 -0.03598,-9.627014c5.040009,5.978027 8.333008,11.296997 12.915009,15.039001c11.699982,9.557983 23.500977,19.15802 36.217987,27.237c6.462982,4.106018 14.97998,4.996033 22.588989,7.27002c1.575012,0.469971 3.649017,0.106995 4.802002,1.010986c7.662994,6.007019 16.730011,4.79303 25.313995,4.507019c2.688995,-0.090027 7.09201,-4.104004 7.338989,-6.650024c0.248016,-2.552002 -3.417999,-5.822998 -5.92099,-8.195984c-1.98999,-1.887024 -4.812988,-2.895996 -7.860992,-4.634033c-8.101013,-1.266968 -17.518005,-1.537964 -26.066986,-4.398987c-9.308014,-3.117004 -18.308014,-7.886963 -26.520996,-13.326965c-7.837006,-5.190002 -14.83902,-11.815002 -21.580017,-18.447998c-11.113007,-10.937012 -17.34201,-25.05304 -23.516998,-39.044006c-1.082001,-2.450012 -0.317993,-5.69104 -0.513,-8.559998c-0.419983,-6.200012 -0.908997,-12.39502 -1.421997,-19.296021c25.22699,26.744995 54.127014,48.536987 93.384003,56.992004z" fill="#FFFFFF" clip-rule="evenodd" fill-rule="evenodd"/>
    <path id="svg_7" d="m323.359009,472.444c-0.438995,-10.501007 -1.578003,-21.039001 -1.023987,-31.487c0.274994,-5.208008 2.510986,-11.199005 5.830994,-15.196991c10.93399,-13.166016 23.334991,-25.128998 34.048004,-38.458008c6.554993,-8.156006 11.457001,-17.753998 16.375977,-27.084991c7.231018,-13.71701 14.354004,-27.541962 20.486023,-41.767853c4.041992,-9.375946 6.214996,-19.552887 9.313995,-29.342804c2.89801,-9.156952 5.104004,-18.648895 9.080994,-27.320831c5.056,-11.018982 10.484009,-22.195969 17.752014,-31.79097c10.271973,-13.560013 23.478973,-24.300034 39.820984,-30.348053c8.118011,-3.003006 16.157013,-6.82901 24.575012,-8.252029c9.201996,-1.554993 9.220001,-0.310989 9.542999,9.327042c0.388977,11.570038 2.406006,23.15303 1.967987,34.66304c-0.354004,9.289993 -3.299988,18.481979 -5.112,27.713959c-0.181,0.919983 -0.830994,1.889984 -0.664001,2.715973c1.864014,9.282928 -4.89798,9.63092 -11.007996,10.957947c-16.895996,3.669952 -32.817993,9.853912 -47.088013,19.708862c-5.821991,4.020966 -11.684998,8.320953 -16.428986,13.500916c-12.312988,13.448914 -22.838989,27.853821 -30.015991,45.197784c-5.089996,12.303009 -6.809998,25.15802 -11.097015,37.360016c-9.127991,25.983002 -20.195984,51.096008 -41.970001,69.559998c-5.983978,5.074982 -12.108978,9.988007 -18.290009,14.820984c-0.915009,0.714996 -3.404999,1.097015 -3.617004,0.734009c-0.872986,-1.506012 -1.151978,-3.356995 -1.64798,-5.080994c-0.275024,-0.041992 -0.553009,-0.085999 -0.832001,-0.130005z" fill="#FFFFFF" clip-rule="evenodd" fill-rule="evenodd"/>
    <path id="svg_8" d="m558.728027,396.429016c6.002991,0.73999 11.963013,2.075989 17.921997,2.074005c10.098999,-0.006012 16.629028,-9.975006 18.359985,-18.307007c1.513,-7.277008 -7.107971,-16.643005 -13.643982,-20.230011c-7.64502,-4.195984 -13.598999,1.39801 -20.424988,1.02301c-4.554993,-0.25 -9.242981,1.755005 -13.85498,2.821014c-23.624023,5.458984 -46.74704,3.237 -70.077026,-2.815002c-17.015991,-4.414001 -26.946014,1.68399 -28.45401,17.565002c-1.354004,14.266998 14.186005,23.755005 28.274994,18.22699c2.212006,-0.868011 6.029022,-1.653992 7.056,-0.558014c1.400024,1.493011 1.736023,5.152008 0.963013,7.327026c-5.985992,16.839996 -15.927002,30.802002 -31.127991,40.638977c-1.363007,0.882019 -2.973999,1.382996 -6.167023,2.830017c-3.238983,-6.889008 -6.575989,-13.492004 -9.483978,-20.279999c-5.578003,-13.019012 -12.369019,-25.744995 -16.056,-39.300018c-8.593018,-31.593994 20.600983,-60.085907 52.14798,-55.822906c11.02002,1.487976 21.875,4.19397 32.80899,6.324951c4.611023,0.898987 9.229004,1.761963 13.851013,2.612976c0.937012,0.173004 1.940979,0.450989 2.84198,0.28299c11.617004,-2.165985 23.300049,-4.057983 34.804016,-6.71994c11.405029,-2.639984 21.98999,-2.414001 33.332031,1.869965c17.106995,6.460968 23.862,20.487976 28.375,35.734985c3.242981,10.954987 -1.583008,21.612976 -6.527039,31.803986c-4.963989,10.229004 -8.80896,20.996002 -13.388977,31.419006c-1.603027,3.645996 -3.936035,6.970001 -5.94104,10.455994c-17.888977,-5.470001 -38.830017,-34.451996 -35.589966,-48.977997zm55.152954,-17.822998c-1.408997,-5.408997 -2.057983,-11.167999 -4.359009,-16.165009c-10.078003,-21.884979 -30.028015,-26.106964 -47.393982,-21.413971c-13.289001,3.590973 -26.520996,7.244965 -40.096008,7.217987c-12.014008,-0.024017 -24.04599,-2.697021 -36.020996,-4.524017c-5.859009,-0.893982 -11.733002,-4.018982 -17.380005,-3.537994c-16.276001,1.386017 -29.446991,7.653992 -35.987,24.615997c-6.242004,16.190002 -0.582001,37.167999 14.544006,45.709015c3.182007,1.796997 10.217987,2.727997 11.326996,1.145996c3.636993,-5.186005 -2.755005,-6.207001 -5.647003,-8.255005c-11.621002,-8.229004 -17.25,-24.342987 -12.075989,-35.352997c6.802979,-14.479004 20.748993,-20.320007 36.112976,-16.860992c13.88501,3.125 28.128021,4.721985 42.252991,6.705994c13.90802,1.953003 27.268005,-0.803009 40.519043,-4.987c5.283997,-1.669006 11.199951,-3.311005 16.458984,-2.515991c4.94397,0.745972 9.395996,4.727997 14.072021,7.267975c12.769958,6.934998 15.797974,31.322998 3.090942,40.041016c-3.718994,2.552002 -7.545959,5.108002 -10.651978,8.312988c-1.292969,1.333008 -1.891968,5.235016 -0.919006,6.419006c1.40802,1.713989 5.187988,3.451996 6.81604,2.703003c14.367981,-6.612 24.749023,-18.166016 25.336975,-36.526001z" fill="#FFFFFF" clip-rule="evenodd" fill-rule="evenodd"/>
    <path id="svg_9" d="m834.742981,766.280029c1.835022,10.088013 3.632019,17.849976 4.388977,25.711975c0.175049,1.814026 -2.83197,4.865051 -5.033997,5.812012c-7.718994,3.312012 -15.953979,5.47699 -23.5,9.103027c-2.695007,1.295959 -5.256958,5.346985 -5.652954,8.425964c-0.782043,6.044006 3.016968,8.291016 8.523987,5.820007c7.502991,-3.362976 14.795959,-7.255981 22.476013,-10.130005c3.06897,-1.148987 6.928955,-0.187988 8.57196,-0.187988c2.010986,6.151978 3.721008,11.388977 5.811035,17.781982c-5.603027,2.853027 -12.304016,6.137024 -18.868042,9.675049c-2.458008,1.324951 -5.034973,2.891968 -6.730957,5.009949c-1.240051,1.550049 -2.155029,4.731018 -1.369019,6.195007c1.031982,1.927002 4.107971,4.283997 5.89502,3.985046c4.774963,-0.795044 9.567993,-2.43103 13.927979,-4.590027c12.307983,-6.096008 14.187988,-5.218994 16.53302,8.013977c0.805969,4.545044 2.039978,9.149048 3.937988,13.335999c4.117981,9.082031 2.881958,12.261047 -6.587036,14.415039c-16.668945,3.792969 -31.143982,12.463989 -45.569946,21.026001c-4.512024,2.678955 -6.133057,2.489014 -7.591003,-2.444031c-5.528015,-18.710999 -10.95105,-37.459961 -16.945007,-56.02301c-4.748047,-14.699951 -10.054993,-29.231995 -15.531006,-43.680969c-4.132019,-10.901978 -4.317993,-11.065002 6.710999,-15.914978c10.268982,-4.514038 20.399963,-9.386047 30.864014,-13.387024c8.419006,-3.220032 17.245972,-5.373047 25.737976,-7.953003z" fill="#FFFFFF" clip-rule="evenodd" fill-rule="evenodd"/>
    <path id="svg_10" d="m510.493011,628.078979c-8.350006,2.203979 -16.444,4.254028 -24.488007,6.487c-9.528992,2.64502 -19.005005,5.482971 -28.52298,8.167969c-4.121002,1.162048 -8.242004,2.442017 -12.450012,3.147034c-7.348999,1.231995 -14.73999,2.364014 -22.158997,2.994995c-13.997009,1.190002 -28.040009,1.845032 -42.039001,3.021973c-7.087006,0.595032 -14.212006,3.070007 -21.157013,2.548035c-14.699005,-1.109009 -29.29599,-3.598022 -43.919006,-5.637024c-1.042999,-0.145996 -2.099976,-1.099976 -2.904999,-1.919006c-11.292999,-11.485962 -22.570984,-22.966003 -35.437988,-32.783997c-1.614014,-1.230957 -1.57901,-4.557007 -2.441986,-6.862c-0.542023,-1.445984 -1.093018,-2.995972 -2.052002,-4.159973c-4.933014,-5.982971 -10.111023,-11.768982 -14.964996,-17.812988c-1.988007,-2.47699 -3.38002,-5.432983 -4.235016,-10.122009c6.747009,2.739014 13.502014,5.458984 20.226013,8.252991c0.562988,0.234009 0.954987,1.440002 1.362976,1.407043c8.872009,-0.716003 16.625,2.935974 24.578003,5.990967c6.632996,2.546997 13.378998,4.819031 20.157013,6.953979c5.520996,1.738037 11.156006,3.117004 16.752991,4.608032c2.431,0.647949 5.640991,0.395996 7.21402,1.895996c8.577972,8.18396 18.721985,11.586975 30.373993,12.695007c11.643982,1.107971 23.136993,3.75 34.71698,5.586975c7.036011,1.116028 14.116028,1.945984 21.167999,2.965027c6.103027,0.880981 12.781006,3.922974 18.185028,2.397949c18.338989,-5.177002 36.789978,-1.029968 55.097992,-2.425964c1.868988,-0.143982 3.785004,0.232971 5.665985,0.476013c0.257996,0.036011 0.43399,0.690979 1.27301,2.125977z" fill="#FFFFFF" clip-rule="evenodd" fill-rule="evenodd"/>
    <path id="svg_11" d="m188.552002,884.835022c-6.039001,-1.025024 -12.497009,-2.827026 -18.999008,-3.007019c-5.292999,-0.145996 -10.842987,1.077026 -15.870987,2.850037c-2.207001,0.776978 -5.008011,4.750977 -4.621002,6.691956c0.419998,2.114014 4.088989,4.772034 6.582993,5.05304c6.369003,0.713989 12.87001,0.237 20.85701,0.237c-2.752014,8.605957 -5.435013,16.120972 -7.515015,23.797974c-1.507996,5.562012 -2.706985,11.307007 -3.126999,17.035034c-0.355988,4.869995 -3.398987,5.546997 -6.227997,4.096985c-12.970993,-6.643982 -26.866989,-5.158997 -40.586998,-5.39502c-6.094002,-0.104004 -8.067001,-2.846008 -5.826996,-8.335999c0.443001,-1.086975 0.960999,-2.205994 1.082001,-3.349976c1.118996,-10.60199 1.495995,-21.329041 3.365997,-31.791016c3.260002,-18.237 7.209,-36.364014 11.504997,-54.387024c0.492996,-2.06897 5.068008,-4.529968 7.699005,-4.471985c8.227997,0.184021 16.574997,0.807983 24.604996,2.527039c10.059998,2.153992 19.958008,5.247986 29.714005,8.560974c5.315002,1.804993 10.229996,4.827026 15.25499,7.435974c6.587006,3.419006 6.659012,10.223999 0.322006,14.429016c-5.222992,3.465027 -10.505005,6.882996 -15.391006,10.786011c-1.425995,1.140991 -1.581985,3.872986 -2.821991,7.237z" fill="#FFFFFF" clip-rule="evenodd" fill-rule="evenodd"/>
    <path id="svg_12" d="m733.088013,722.179993c14.387024,-11.401001 28.578003,-22.646973 41.516968,-32.901001c7.479004,5.299988 13.292053,9.416992 19.690002,13.950989c-1.185974,1.072021 -3.642944,3.34198 -6.148987,5.551025c-5.528992,4.868958 -11.529968,9.313965 -16.360962,14.794006c-1.487,1.685974 -0.919006,6.949951 0.669006,9.181946c2.623962,3.689026 6.803955,3.947021 10.507996,0.321045c4.657959,-4.562988 9.348999,-9.100037 14.178955,-13.47699c6.782043,-6.147034 10.67804,-5.805054 15.38501,1.973999c4.593018,7.59198 8.687988,15.500977 12.697998,23.425964c3.515991,6.949036 2.742981,7.937988 -5.174011,10.059998c-6.130005,1.643005 -12.393005,3.161987 -18.149963,5.734009c-11.619995,5.190002 -22.953003,11.028015 -34.369995,16.669006c-4.287048,2.117981 -6.609009,2.260986 -9.007019,-3.338013c-5.987,-13.97699 -13.189026,-27.43396 -19.921997,-41.089966c-1.562012,-3.166016 -3.194031,-6.294983 -5.513,-10.856018z" fill="#FFFFFF" clip-rule="evenodd" fill-rule="evenodd"/>
    <path id="svg_13" d="m824.344971,973.726013c-5.047974,-17.10498 -9.875977,-33.464966 -15.148987,-51.333984c14.169983,-7.166016 28.966003,-14.861023 43.982971,-22.098022c3.933044,-1.894958 8.528992,-2.459961 12.859985,-3.461975c5.96106,-1.380005 10.32605,2.407959 10.79303,9.670959c0.434998,6.734009 -1.482971,13.498047 4.041992,19.679016c2.799988,3.132019 -3.085999,13.877014 -7.612,16.276001c-11.557983,6.125 -23.330994,11.900024 -34.526001,18.632996c-5.315979,3.195984 -9.508972,8.257019 -14.390991,12.63501z" fill="#FFFFFF" clip-rule="evenodd" fill-rule="evenodd"/>
    <path id="svg_14" d="m516.424011,463.209015c3.088989,4.261993 6.059998,8.488007 9.192017,12.59201c0.823975,1.078979 2.015991,2.151978 3.263,2.591003c8.042969,2.832977 12.174988,13.873993 8.070984,21.774994c-1.122009,2.15799 -2.059021,4.412994 -3.275024,7.04599c-4.962952,0.578003 -10.580994,1.584991 -16.229004,1.812012c-10.030975,0.401001 -16.596985,6.228027 -22.885986,13.093994c-1.251984,1.368042 -5.289001,2.277039 -6.291992,1.39801c-3.306,-2.89502 -6.67099,-6.314026 -8.455994,-10.23999c-4.770996,-10.500031 -8.610992,-21.41803 -13.07901,-32.063019c-1.682983,-4.011017 -4.311005,-7.623993 -6.003998,-11.630005c-0.533997,-1.261993 0.160004,-4.359009 0.998016,-4.661011c4.323975,-1.562988 8.817993,-3.062988 13.360992,-3.527985c11.64801,-1.188995 23.20401,-0.131012 34.652008,2.471985c2.127991,0.484009 4.570953,-0.415985 6.68399,-0.65799z" fill="#FFFFFF" clip-rule="evenodd" fill-rule="evenodd"/>
    <path id="svg_15" d="m163.716995,751.291016c5.136002,-13.279968 9.85701,-25.073975 14.237,-36.994019c2.014008,-5.482971 5.880005,-9.31897 11.264999,-8.915955c12.565002,0.940979 26.006012,-1.471008 36.973007,7.257996c1.651993,1.313965 1.826004,4.346008 3.065994,6.346008c3.88501,6.264954 8.067001,12.347961 11.880005,18.652954c1.145996,1.895996 1.837997,4.252014 2.072998,6.468018c0.404007,3.799988 0.287994,7.655029 0.380997,11.487976c0.05101,2.108032 0.085007,4.217041 0.126999,6.325012c-2.200989,-0.518982 -4.427994,-0.950989 -6.600998,-1.570007c-9.895996,-2.820007 -19.653992,-6.294983 -29.701996,-8.363953c-8.746002,-1.80304 -17.798996,-2.338013 -26.748993,-2.815002c-3.392014,-0.182007 -6.851013,1.526978 -10.327011,2.061951c-2.132004,0.325989 -4.352997,0.059021 -6.623001,0.059021z" fill="#FFFFFF" clip-rule="evenodd" fill-rule="evenodd"/>
    <path id="svg_16" d="m146.651993,790.877991c-0.283997,-1.244019 -0.794006,-2.125 -0.541,-2.567017c3.718002,-6.482971 6.315002,-14.367981 11.712997,-18.895996c4.5,-3.776001 12.248001,-4.451965 18.679993,-4.971985c9.027008,-0.729004 18.571014,-1.689026 27.170013,0.411011c14.537994,3.552002 29.946991,6.122986 40.800995,16.200012c-1.514008,7.235962 -2.755005,13.224976 -4.022995,19.207947c-1.052002,4.962036 -3.726013,7.876038 -9.088013,6.129028c-11.584991,-3.772034 -23.099991,-7.757019 -34.62999,-11.695007c-13.613998,-4.648987 -27.602005,-6.229004 -41.904999,-5.104004c-2.580994,0.203003 -5.131989,0.796021 -8.177002,1.286011z" fill="#FFFFFF" clip-rule="evenodd" fill-rule="evenodd"/>
    <path id="svg_17" d="m232.856995,824.231018c-4.845001,6.976013 -8.91301,12.833008 -12.158005,17.502991c-14.108994,-5.229004 -27.62999,-11.140015 -41.686996,-15.195007c-14.124008,-4.075012 -28.781998,-6.302979 -43.628998,-9.429993c-1.333008,-6.429016 3.377991,-11.972961 12.171997,-12.244995c9.819,-0.305969 19.748001,-0.945984 29.462997,0.096985c19.634003,2.110046 38.188004,8.131042 55.162003,18.494995c0.747009,0.455994 1.190002,1.407043 0.677002,0.775024z" fill="#FFFFFF" clip-rule="evenodd" fill-rule="evenodd"/>
    <path id="svg_18" d="m808.383972,510.253052c-9.333984,-5.390045 -18.23999,-7.762024 -23.552002,-16.452026c-4.247986,-6.950012 -11.784973,-10.14502 -19.25,-12.298004c-8.765991,-2.528992 -17.783997,-4.338989 -26.804016,-5.761993c-3.786987,-0.597015 -5.76001,-1.408997 -5.545959,-5.52002c0.270996,-5.25 0.322998,-10.514984 0.380981,-15.77298c0.037964,-3.377014 1.057983,-5.32901 4.718994,-3.381012c26.307983,13.996002 48.776978,32.812988 68.638977,54.872009c0.520081,0.577972 0.550049,1.597992 1.413025,4.314026z" fill="#FFFFFF" clip-rule="evenodd" fill-rule="evenodd"/>
    <path id="svg_19" d="m246.546997,494.03302c8.999008,-7.963989 17.60199,-16.442017 27.110992,-23.740997c8.749023,-6.714996 18.424011,-12.235992 27.809021,-18.095001c1.652985,-1.032013 4.267975,-2.024994 5.734985,-1.395996c1.244995,0.533997 1.968994,3.410004 2.074005,5.29599c1.083008,19.391998 0.665985,19.812012 -18.141998,21.098999c-13.080017,0.894989 -23.921997,6.953003 -34.10199,14.654999c-2.60701,1.972015 -5.585007,3.455017 -8.393005,5.162018c-0.697006,-0.994019 -1.394012,-1.98703 -2.09201,-2.980011z" fill="#FFFFFF" clip-rule="evenodd" fill-rule="evenodd"/>
    <path id="svg_20" d="m165.572998,959.221985c-2.061005,3.877991 -3.891998,7.322998 -6.259003,11.775024c-4.927002,-0.994995 -11.284988,-2.390991 -17.686996,-3.541016c-5.548004,-0.997986 -11.158997,-1.640991 -16.716995,-2.587036c-4.626007,-0.787964 -9.296005,-1.523987 -13.766006,-2.879944c-1.116997,-0.33905 -2.482994,-3.298035 -2.074997,-4.480042c0.782997,-2.268982 2.331001,-5.184998 4.304001,-5.971008c8.898003,-3.546936 42.740997,1.666016 52.199997,7.684021z" fill="#FFFFFF" clip-rule="evenodd" fill-rule="evenodd"/>
    <path id="svg_21" d="m378.979004,913.994995c2.160004,-0.195007 4.319,-0.552002 6.480011,-0.559021c13.90799,-0.04895 27.840973,-0.508972 41.713989,0.195007c6.520996,0.332031 13.031982,2.623047 19.352997,4.638c5.34201,1.702026 10.291016,4.653015 15.647003,6.289001c2.036011,0.622986 4.722992,-0.88501 7.705994,-1.553955c2.407013,2.473999 7.181,4.959961 2.263,10.95697c-1.947998,-4.830994 -3.901001,-7.984009 -9.569977,-3.900024c-3.430023,2.470032 -8.389008,3.039001 -12.775024,3.833008c-1.437988,0.260986 -3.75,-1.046997 -4.78299,-2.339966c-6.144012,-7.692993 -14.471985,-9.332031 -23.574005,-9.009033c-10.776978,0.38501 -21.115997,-1.097961 -31.15799,-5.43396c-3.282013,-1.417053 -7.496002,-0.673035 -11.283997,-0.91803c-0.006012,-0.730957 -0.013031,-1.464966 -0.019012,-2.197998z" fill="#FFFFFF" clip-rule="evenodd" fill-rule="evenodd"/>
    <path id="svg_22" d="m677.768982,922.791016c-1.916992,3.10498 -3.312988,7.666992 -5.174011,7.864014c-3.143982,0.333008 -6.515015,-2.329041 -9.916016,-3.283997c-2.588989,-0.726013 -5.970947,-1.908997 -7.957947,-0.879028c-5.747009,2.979004 -10.470032,3.26001 -14.993042,-1.895996c-0.904968,-1.031982 -2.537964,-1.833008 -3.916016,-1.97998c-10.625,-1.130981 -21.270996,-2.062012 -31.903992,-3.11499c-0.561951,-0.054993 -1.067993,-0.655029 -2.086975,-1.320007c9.838013,-6.858032 20.512024,-4.439026 30.778992,-4.622009c9.39801,10.531006 21.801025,3.583008 32.647034,5.669983c3.940002,0.755981 7.750977,2.18103 12.521973,3.562012z" fill="#FFFFFF" clip-rule="evenodd" fill-rule="evenodd"/>
    <path id="svg_23" d="m728.515991,708.142029c-1.700989,-14.231995 1.083008,-27.494019 4.492004,-30.369995c9.098999,1.546997 16.591003,2.820007 25.101013,4.266968c-9.905029,8.734985 -19.41803,17.125977 -29.593018,26.103027z" fill="#FFFFFF" clip-rule="evenodd" fill-rule="evenodd"/>
    <path id="svg_24" d="m613.880981,378.606018c-0.588013,18.359009 -10.968994,29.914001 -25.336975,36.526001c-1.628052,0.75 -5.40802,-0.989014 -6.81604,-2.703003c-0.972961,-1.18399 -0.373962,-5.085999 0.919006,-6.419006c3.106018,-3.204987 6.934021,-5.760986 10.651978,-8.312988c12.707031,-8.718018 9.679016,-33.106018 -3.090942,-40.041016c-4.677002,-2.540985 -9.128052,-6.522003 -14.072021,-7.267975c-5.259033,-0.795013 -11.174988,0.845978 -16.458984,2.515991c-13.251038,4.184998 -26.610046,6.940002 -40.519043,4.987c-14.124969,-1.983002 -28.367981,-3.580994 -42.252991,-6.705994c-15.363983,-3.459015 -29.309998,2.381989 -36.112976,16.860992c-5.174011,11.01001 0.455994,27.123993 12.075989,35.352997c2.893005,2.048004 9.285004,3.069 5.647003,8.255005c-1.109009,1.582001 -8.144989,0.651001 -11.326996,-1.145996c-15.126007,-8.541016 -20.787018,-29.519012 -14.544006,-45.709015c6.540009,-16.962006 19.710999,-23.22998 35.987,-24.615997c5.647003,-0.47998 11.520996,2.644012 17.380005,3.537994c11.975006,1.826996 24.006989,4.5 36.020996,4.524017c13.575012,0.026978 26.807007,-3.627014 40.096008,-7.217987c17.36499,-4.692993 37.315002,-0.471008 47.393982,21.413971c2.301025,4.997009 2.950012,10.756989 4.359009,16.165009z" clip-rule="evenodd" fill-rule="evenodd"/>
   </g>
  </g>
  <path id="svg_26" d="m39.198002,996.453003c1.261997,-9.064026 2.378998,-18.153015 3.821999,-27.190002c1.916,-11.992004 3.84,-23.990967 6.207001,-35.898987c3.247997,-16.337036 6.518997,-32.687988 10.546997,-48.843018c2.450001,-9.820984 6.346004,-19.279968 9.591999,-28.903015c2.257004,-6.690002 6.656006,-9.758972 13.959,-9.458984c2.910004,0.119995 8.213005,-1.479004 8.444,-2.929016c0.808006,-5.075989 5.316002,-10.870972 -1.362,-15.733948c-1.459999,-1.063049 -2.151001,-4.992004 -1.431999,-6.954041c5.510002,-15.039001 11.298004,-29.981995 17.311005,-44.828979c6.731995,-16.625977 13.216995,-33.392029 20.875,-49.593018c7.172997,-15.175964 16.174995,-29.481995 23.527992,-44.583008c4.387009,-9.008972 7.615997,-18.666992 10.544998,-28.281982c5.973999,-19.609985 11.81601,-39.281006 16.934006,-59.127991c6.328003,-24.536987 22.535995,-42.072021 41.309998,-56.955994c11.653,-9.239014 25.14801,-16.979004 40.723999,-18.969971c11.464996,-1.466003 22.920013,-3.794006 34.412018,-4.007019c8.832001,-0.164001 17.690979,2.550964 26.580994,3.638c5.204987,0.635986 5.368988,3.597961 4.559998,7.606018c-0.298004,1.477966 -0.080017,3.060974 -0.097015,4.595947c2,-0.141968 4.358002,0.353027 5.936005,-0.536987c6.312012,-3.555969 12.218018,-7.838989 18.572998,-11.304993c12.475006,-6.802979 24.768005,-14.186005 37.882996,-19.476013c7.904022,-3.187988 17.216003,-2.882996 27.049011,-4.31601c0,-2.427979 0.118011,-5.445984 -0.020996,-8.453979c-0.438995,-9.528992 0.343994,-18.688995 4.493988,-27.631012c1.308014,-2.817993 0.367004,-7.751984 -1.317993,-10.705994c-8.119995,-14.230011 -11.223999,-29.950012 -14.751984,-45.596008c-0.71701,-3.179993 -1.222015,-6.876007 -3.162018,-9.233002c-10.618988,-12.906006 -7.761993,-28.209991 -8.661987,-42.979004c-0.455017,-7.457001 -1.89502,-15.043945 -4.196014,-22.147888c-2.673004,-8.249939 -1.709991,-14.966919 4.14502,-21.467865c1.742981,-1.934998 3.237976,-5.744965 2.534973,-7.965942c-4.662994,-14.75293 -0.171997,-28.615814 2.83902,-42.800735c4.217987,-19.864014 15.375,-35.32901 29.695984,-48.813019c11.593018,-10.916046 25.07901,-18.607071 40.654022,-22.821091c10.987976,-2.973999 21.846985,-5.901001 33.353973,-5.199005c25.878998,1.578003 48.859039,10.236023 68.154999,27.883087c11.609009,10.616028 21.212036,22.963028 26.716003,37.609024c3.686035,9.806 5.265015,20.534958 6.720032,30.999863c0.953003,6.853973 -0.046021,13.972931 -0.083008,20.973877c-0.028015,5.161957 -0.466003,9.921936 4.153015,14.396912c5.437988,5.268951 3.315002,13.323914 0.539001,18.593872c-6.125,11.623932 -3.833008,23.472931 -4.03302,35.396912c-0.161987,9.553009 -0.423035,18.85202 -6.942017,27.363007c-3.528015,4.606018 -3.560974,11.863007 -5.271973,17.895996c-2.109009,7.438995 -4.033997,14.951019 -6.585022,22.240021c-2.213013,6.322998 -5.848999,12.199982 -7.593018,18.616974c-1.174988,4.326019 -1.69696,10.054016 0.220032,13.730011c3.60199,6.907013 1.891968,13.567017 1.607971,20.317993c-0.317993,7.574005 2.135986,10.133026 9.660034,10.875c19.062988,1.878998 37.753967,4.053009 54.060974,16.536041c10.25,7.846008 22.79303,12.69696 35.26001,19.403992c0,-4.616028 0,-8.358032 0,-12.371033c19.72998,-6.621948 39.731995,-6.666992 59.383972,-3.043945c15.107056,2.783997 29.064026,9.431946 42.143005,18.25c22.372009,15.085999 37.863037,35.36499 47.447998,60.026978c4.501038,11.579956 6.294006,24.214966 9.308044,36.372986c6.495972,26.210022 14.95697,51.471008 29.597961,74.638c7.983032,12.632019 13.251038,26.999023 19.53302,40.680969c4.171997,9.092041 8.314026,18.225037 11.859985,27.571045c5.897034,15.549988 11.285034,31.294006 16.955017,46.932007c0.544006,1.498962 1.575989,2.82196 2.755981,4.878967c-2.174011,1.796021 -4.463013,3.687988 -6.974976,5.765015c0.339966,3.240967 -0.012024,7.041992 1.313965,10.119995c0.955017,2.218018 4.011047,4.698975 6.359009,4.953979c12.254028,1.330994 15.897034,3.683044 19.369019,15.479004c4.132019,14.036011 8.549011,28.05304 11.518005,42.354004c4.549988,21.921997 7.830994,44.103027 11.942017,66.119995c1.294983,6.939026 3.519958,13.707031 5.31897,20.55304c0,1.919006 0,3.839966 0,5.76001c-3.841003,0 -7.679993,0 -11.52002,0c-0.542969,-3.723999 -1.097961,-7.446045 -1.625977,-11.173035c-1.190979,-8.388977 -2.093018,-16.828003 -3.63501,-25.151978c-1.278015,-6.895996 -3.690002,-13.587036 -4.898987,-20.492004c-1.393005,-7.952026 -2.015015,-16.038025 -2.976013,-24.064026c-0.028015,-0.232971 -0.14801,-0.455994 -0.205994,-0.687988c-1.838989,-7.393982 -3.77002,-14.765015 -5.484985,-22.187012c-1.640015,-7.093994 -2.859009,-14.288025 -4.61499,-21.351013c-2.419006,-9.72699 -8.712036,-14.255981 -18.710022,-14.46698c-5.182983,-0.108032 -10.34198,-1.098999 -15.526978,-1.275024c-6.92804,-0.237 -14.069031,-1.055969 -20.734009,0.285034c-4.067993,0.817993 -10.052002,3.752991 -8.447998,10.005981c1.964966,7.651978 5.434998,14.905029 7.737,22.487c5.914001,19.458008 11.541992,39.002014 17.315002,58.622009c-1.914001,1.796997 -3.757996,3.531006 -7.309998,6.867981c-11.31604,-24.5 -15.744019,-50.167969 -25.39801,-75.283997c-1.953979,2.188049 -3.554993,3.480042 -4.522034,5.144043c-4.849976,8.335999 -8.562988,17.549988 -14.524963,24.968994c-7.489014,9.31897 -16.885986,17.088013 -25.182983,25.787964c-1.619019,1.697021 -3.420044,5.257996 -2.694031,6.842041c8.47699,18.497009 17.419983,36.781006 26.242004,55.122009c-3.841003,0 -7.679993,0 -11.520996,0c-0.096985,-0.955017 0.063965,-2.038025 -0.330017,-2.847046c-8.011963,-16.354004 -15.893982,-32.778992 -24.234985,-48.96698c-3.955994,-7.672974 -3.286987,-10.684021 3.442017,-15.770996c2.237,-1.692017 4.115967,-5.957031 3.703979,-8.671021c-1.305969,-8.572998 -3.252991,-17.138977 -5.90802,-25.398987c-4.401001,-13.697021 -7.920959,-27.161987 -16.940002,-39.729004c-13.820984,-19.253967 -23.893982,-41.289001 -34.718994,-62.570007c-7.500977,-14.748962 -13.570007,-30.224976 -20.350952,-45.343018c-0.437012,-0.974976 -1.332031,-2.065979 -2.276001,-2.436951c-5.722046,-2.246033 -13.624023,3.365967 -14.403015,9.716003c-0.954041,7.757996 -2.054993,15.520996 -3.598999,23.179993c-2.539001,12.596008 -5.596008,25.086975 -8.230042,37.664978c-2.474976,11.812012 -4.537964,23.710022 -7.047974,35.513c-3.125977,14.697998 -6.434021,29.360046 -9.89502,43.981995c-0.588989,2.484009 -2.344971,4.694031 -2.987,5.92804c-4.362,-0.778015 -7.190002,-1.28302 -10.020996,-1.788025c-0.084961,3.133972 -0.368958,6.276978 -0.190979,9.395996c0.145996,2.562012 1.046021,5.073975 1.26001,7.638c1.049011,12.557007 1.979004,25.122986 2.954956,37.684998c0.037048,0.47699 0.130005,0.947998 0.17804,1.424988c1.386963,13.798035 2.770996,27.597046 4.153992,41.39502c-3.840027,0 -7.679993,0 -11.52002,0c-0.961975,-15.479004 -1.743958,-30.973022 -2.968994,-46.432007c-0.539001,-6.796997 -1.742004,-13.572998 -3.192993,-20.23999c-0.328979,-1.513 -2.768005,-3.099976 -4.539978,-3.620972c-1.944031,-0.574036 -4.238037,0.125977 -6.381042,0.125977c-3.447998,0 -7.313965,0.809021 -10.210999,-0.492004c-2.185974,-0.979004 -3.994995,-4.638 -4.250977,-7.271973c-0.122986,-1.257996 3.648987,-3.959045 5.838013,-4.174011c6.368958,-0.626038 12.828979,-0.325012 18.221985,-0.377991c-0.413025,-5.036011 -1.177979,-8.171997 -0.815979,-11.175049c0.891968,-7.427002 -2.52301,-11.816956 -8.949036,-14.664978c-11.271973,-4.994995 -22.348999,-10.469971 -33.78302,-15.054993c-13.136963,-5.268982 -26.369995,-10.497009 -39.944946,-14.406006c-10.632019,-3.059998 -21.804016,-4.429016 -32.820007,-5.921021c-13.565979,-1.835999 -27.204041,-3.962952 -40.843018,-4.213989c-12.988007,-0.239014 -26.095978,1.203003 -39.011993,2.937988c-17.264984,2.31604 -34.798004,4.190002 -51.484985,8.862c-22.788025,6.379028 -45.120026,14.549011 -66.016022,26.190002c-5.061005,2.819031 -7.695984,6.356018 -8.250977,11.498047c-1.677002,15.518005 -3.243011,31.056946 -4.414001,46.619995c-1.299011,17.25 -2.114014,34.539001 -3.140015,51.810974c-3.359985,0 -6.720001,0 -10.079987,0c0.96698,-9.906982 2.132996,-19.799011 2.859985,-29.723022c1.541016,-21.04895 2.880005,-42.110962 4.239014,-63.171997c0.269989,-4.180969 -0.920013,-5.987 -5.492004,-3.598999c-1.470001,0.77002 -5.028015,0.275024 -5.792999,-0.868958c-2.007996,-3.006042 -3.623016,-6.569031 -4.292999,-10.119019c-2.360016,-12.510986 -4.122009,-25.132996 -6.391998,-37.661011c-1.09201,-6.031982 -2.854034,-11.940979 -4.240021,-17.922974c-2.287994,-9.861023 -4.592987,-19.718994 -6.751984,-29.608032c-3.824005,-17.513 -8.02002,-34.966003 -11.049011,-52.617981c-1.049988,-6.117981 -5.380981,-6.002991 -8.59198,-6.210999c-2.223999,-0.143982 -5.684021,3.062012 -6.893005,5.583984c-7.507996,15.656982 -14.459015,31.580994 -21.754013,47.34198c-3.934998,8.502014 -7.815994,17.063049 -12.377991,25.231018c-7.531006,13.481995 -13.575012,27.934998 -24.818008,39.122009c-1.877014,1.867981 -3.190002,4.598022 -4.024002,7.16803c-3.811005,11.732971 -7.462006,23.521973 -10.968002,35.350952c-3.244003,10.94104 -7.828003,22.314026 7.188995,28.920044c0.565002,0.248962 0.281998,3.847961 -0.481003,5.474976c-8.985001,19.148987 -18.138,38.218994 -27.246994,57.310974c-3.839996,0 -7.680008,0 -11.520004,0c8.776001,-18.289978 17.652008,-36.532959 26.154007,-54.948975c0.73999,-1.606018 -0.283997,-5.083984 -1.693008,-6.429993c-4.78299,-4.564026 -10.770996,-7.979004 -15.095001,-12.893005c-10.450989,-11.875977 -21.118988,-23.744019 -25.929993,-39.440002c-0.421997,-1.377014 -2.604004,-2.216003 -4.229004,-3.513977c-0.929993,1.536987 -1.602997,2.276978 -1.869995,3.143982c-6.199005,20.135986 -12.462997,40.254028 -18.432999,60.45697c-1.321007,4.473999 -2.636002,9.878052 -7.924004,8.414001c-5.985001,-1.656982 -2.503998,-7.651001 -2.556,-11.875977c-0.002998,-0.22699 0.133003,-0.453979 0.206001,-0.682007c7.821999,-24.289001 15.707001,-48.55896 23.347992,-72.906006c0.603012,-1.921997 0.144012,-5.88501 -0.905991,-6.326965c-5.141006,-2.169006 -10.628006,-4.700989 -16.033005,-4.794006c-9.039001,-0.153015 -18.091995,1.865967 -27.167,2.20697c-12.628998,0.475037 -18.485001,5.871033 -19.961998,18.489014c-0.954002,8.148987 -2.218002,16.369019 -4.473,24.234009c-3.909004,13.632019 -7.804001,27.192993 -8.285999,41.481995c-0.024002,0.711975 -0.025002,1.450989 -0.214001,2.129028c-4.892002,17.427002 -7.811001,35.17395 -8.697002,53.253967c-3.84499,-0.007019 -7.68499,-0.007019 -11.524986,-0.007019zm541.752987,-672.931885l0.151978,0.156982c-1.227966,-1.929993 -2.409973,-3.888977 -3.691956,-5.780975c-2.205994,-3.256958 -4.475037,-6.472931 -6.717041,-9.70694c0.442993,-0.391968 0.888,-0.783966 1.333008,-1.175964c-1.732971,-0.526001 -3.466003,-1.053009 -5.583984,-1.696991c2.617981,-10.030945 -6.836975,-12.00293 -11.617004,-15.866913c-6.476013,-5.233948 -15.015991,-8.641937 -23.203979,-10.794922c-6.390991,-1.679993 -13.60199,-0.389984 -20.438019,-0.157013c-4.604004,0.15802 -9.203003,1.181 -13.786011,1.067017c-4.214996,-0.105988 -8.423004,-1.11499 -12.600983,-1.903992c-8.091003,-1.528992 -16.246002,-2.843994 -24.210022,-4.88797c-6.734985,-1.729004 -13.176971,-4.571991 -19.860992,-6.537964c-7.562988,-2.224976 -16.769989,7.232941 -18.962982,17.167908c-2.249023,10.18692 -6.033997,20.049835 -9.411011,29.96579c-1.269012,3.72699 -4.23999,7.063965 -4.77301,10.814941c-1.60498,11.28891 -2.268982,22.707855 -3.527985,34.049896c-1.89801,17.109955 5.484009,32.786957 7.410004,49.300964c0.322998,2.767029 1.04599,5.537048 1.977997,8.166992c0.753998,2.128998 1.721008,4.431 3.272003,5.973999c2.131989,2.119019 4.904999,3.595001 7.403992,5.347046c-0.190002,0.44101 -0.380005,0.884003 -0.570007,1.325012c3.052002,0 6.102997,0 9.766998,0c-0.119995,2.677979 -0.218994,4.899963 -0.321991,7.179962c-3.502014,0.302002 -6.308014,0.542999 -11.252014,0.968018c5.219025,10.985962 9.112,21.528961 14.957001,30.847961c6.308014,10.057037 15.785004,18.233002 21.450012,28.562012c7.768005,14.163055 20.869995,16.667999 34.125,18.255035c11.593994,1.386963 23.948029,2.263977 34.209015,-7.742035c0,-1.174988 0,-3.520966 0,-6.062012c1.690002,-0.097961 3.122986,-0.181976 3.466003,-0.202942c0,-3.890045 -1.314026,-8.167023 0.263977,-10.386047c3.695984,-5.194977 8.879028,-9.313965 13.242981,-14.066956c1.318054,-1.437042 2.473999,-3.44101 2.765015,-5.330017c1.194031,-7.777039 1.854004,-15.638 3.057007,-23.414001c0.804016,-5.190979 0.994019,-11.018036 3.575989,-15.277008c5.013,-8.271027 11.509033,-15.643982 17.407043,-23.376007c2.162964,-2.835022 4.371948,-5.636963 7.159973,-9.22702c1.189026,0.100037 3.458008,0.291046 4.710022,0.396057c9.578003,-11.629059 7.544006,-24.917023 7.276978,-37.200012c-5.270996,-1.890991 -9.705017,-3.482025 -14.625,-5.248047c1.346985,-9.323944 8.554993,-12.586945 14.614014,-16.717957c0.794983,-7.441956 0.135986,-14.126923 -8.442017,-16.785889zm13.890015,216.027893c-2.336975,0.843994 -3.897034,1.315002 -5.374023,1.971985c-1.073975,0.478027 -1.968994,1.404968 -3.062988,1.785034c-13.659973,4.744019 -27.210999,9.873962 -41.072998,13.937988c-7.276978,2.132996 -15.274963,1.755005 -22.619019,3.730957c-3.435974,0.924988 -6.708984,4.286987 -8.974976,7.345032c-4.747986,6.407043 -8.592987,13.47699 -13.187012,20.009033c-2.259979,3.213013 -4.372986,4.554993 -6.903992,-0.822021c-3.826996,-8.127014 -8.721985,-15.812012 -13.785004,-23.260986c-1.42099,-2.091003 -4.916992,-3.499023 -7.640991,-3.85907c-19.752991,-2.619934 -39.274994,-5.945923 -57.231995,-15.23999c-4.990997,-2.583008 -6.753998,-1.500977 -7.048004,4.24408c-1.105011,21.576965 1.811005,43.372986 -4.093018,64.695984c-4.550995,16.438965 -6.898987,33.691956 -13.204987,49.388977c-7.113007,17.70697 -17.088989,34.344971 -26.665985,50.960999c-14.528015,25.210999 -34.968018,45.346985 -57.39801,63.5c-3.158997,2.555969 -3.932007,4.445984 -2.90799,8.35498c3.409973,13.018005 6.651978,26.100037 9.314972,39.286011c3.687012,18.259033 6.769012,36.638977 10.151001,54.958008c1.275024,6.906982 2.776001,7.098022 8.931,3.776978c11.670013,-6.294006 23.675018,-11.971008 35.575012,-17.837952c3.919006,-1.933044 5.726013,-4.289001 2.355011,-8.234009c-0.772003,-0.903992 -1.688019,-1.765991 -2.187012,-2.813049c-9.332001,-19.582947 -18.626007,-39.184998 -27.872986,-58.807983c-0.800995,-1.698975 -1.997009,-3.752991 -1.639008,-5.333008c0.563995,-2.492981 2.290009,-4.724976 3.522003,-7.065979c1.914978,1.106995 4,2.008972 5.681,3.400024c1.018005,0.842957 1.466003,2.415955 2.076996,3.703979c8.759003,18.463989 17.606995,36.887024 26.208984,55.424011c5.519012,11.890991 5.335999,11.895996 18.039001,8.661011c14.434021,-3.675049 28.777008,-7.877014 43.391022,-10.622009c15.776001,-2.965027 31.760986,-5.605042 47.757996,-6.44104c30.925018,-1.617004 61.699005,0.912048 91.88797,8.209045c14.588013,3.526001 28.96405,7.932983 45.174011,12.420959c1.257019,-2.909973 2.88501,-7.191956 4.908997,-11.277954c9.489014,-19.161011 19.126038,-38.25 28.619995,-57.409058c2.445007,-4.935974 5.929016,-7.165955 12.88501,-4.937988c-1.684998,5.950989 -2.625,12.304016 -5.221008,17.888c-8.81897,18.981995 -18.31897,37.64801 -27.297974,56.559998c-1.312012,2.764038 -1.143005,5.491028 3.044983,7.31604c9.087036,3.961975 17.720032,8.954956 26.61499,13.370972c3.360046,1.669006 6.933044,2.910034 10.40802,4.346008c0.89502,-2.755005 1.783997,-5.513 2.69397,-8.263c0.070007,-0.213989 0.373047,-0.359009 0.424011,-0.570007c1.921997,-8.117981 3.828003,-16.242004 5.821045,-24.729004c-4.232056,0 -7.405029,0.781006 -9.833008,-0.229004c-2.237,-0.932007 -4.899048,-3.605957 -5.228027,-5.828979c-0.882019,-5.983032 3.627991,-6.215027 8.036011,-5.906006c4.838989,0.336975 9.489014,0.728027 10.578979,-6c2.200012,-13.593994 2.938049,-27.789978 7.627014,-40.502991c3.950012,-10.70697 -0.119019,-14.309998 -7.080994,-20.745972c-18.127014,-16.757019 -36.559021,-33.550049 -48.297974,-55.975037c-2.302002,-4.396973 -5.65802,-8.253967 -7.860046,-12.690979c-8.072998,-16.275024 -16.69696,-32.355042 -23.464966,-49.173035c-4.427002,-11 -6.520996,-23.047974 -8.729004,-34.802002c-2.494019,-13.276001 -4.655029,-26.695984 -5.64502,-40.149963c-0.94397,-12.875 -0.200989,-25.875 -0.200989,-39.718018zm-303.802002,-15.100037c0.001007,0.05304 0.001007,0.105042 0.001984,0.15802c-6.219971,0 -12.70697,-1.159973 -18.61499,0.197998c-28.041992,6.440002 -51.90799,19.119019 -68.878998,43.890015c-12.149002,17.730957 -19.925003,36.549988 -22.985001,57.583008c-0.098999,0.684021 -0.084,1.403015 -0.298996,2.046997c-1.783997,5.348022 -3.875,10.609009 -5.361008,16.036011c-2.32399,8.489014 -4.065994,17.138 -6.403992,25.622986c-1.445007,5.244019 -3.651001,10.27301 -5.298004,15.468018c-1.149002,3.626953 -1.949997,7.36499 -2.865997,11.063965c-0.843002,3.403992 -1.699005,6.808044 -2.416992,10.23999c-0.374008,1.786011 -0.461014,3.632019 -0.678009,5.45105c2.792999,-0.393005 6.317001,0.157959 8.255005,-1.341003c8.283997,-6.412048 10.354004,-16.782043 14.696991,-25.606018c3.748001,-7.611023 5.298004,-16.286011 8.860001,-24.012024c6.723999,-14.58197 16.259003,-26.770996 32.679001,-31.291992c7.486008,-2.062012 15.167999,-3.434998 22.789001,-4.985962c18.863022,-3.843018 32.287003,-15.496033 40.587021,-31.854004c9.97998,-19.671021 17.768005,-40.447021 26.71698,-60.650024c2.738007,-6.179993 2,-7.833008 -4.979004,-7.994019c-5.265991,-0.119934 -10.536987,-0.02301 -15.804993,-0.02301zm555.866028,187.343018c-0.603027,-2.539001 -0.924011,-4.853027 -1.702026,-7c-1.768982,-4.877014 -4.353943,-9.530029 -5.546997,-14.528015c-3.125,-13.083984 -5.277954,-26.406982 -8.60498,-39.43396c-2.221008,-8.692993 -6.651001,-16.856018 -8.528992,-25.593018c-2.174988,-10.132996 -3.861023,-20.237 -8.91803,-29.483032c-5.838989,-10.675964 -10.019958,-22.58197 -17.385986,-32.031982c-14.221985,-18.242004 -33.328979,-30.067993 -55.812988,-36.494019c-14.361023,-4.103943 -28.812988,-3.207947 -43.344971,-2.704956c-7.517029,0.26001 -8.606018,2.138977 -5.472046,9.13501c8.597046,19.179993 17.070007,38.414978 25.739014,57.562012c6.315979,13.951965 16.455017,24.681946 30.603027,30.219971c9.783997,3.830994 20.613953,4.930969 30.875977,7.632996c4.544983,1.195984 9.333008,2.606995 13.15802,5.185974c12.687988,8.55304 19.893982,21.105042 25.484985,35.164001c5.234009,13.158997 8.065979,27.412048 17.53302,38.855042c3.58197,4.328003 6.826965,4.955017 11.922974,3.513977zm-544.783997,56.820007c11.417999,-11.278015 23.412994,-21.335022 33.156006,-33.234985c10.453003,-12.768005 19.411987,-26.898987 27.865997,-41.122986c7.445984,-12.528015 15.005005,-25.452026 19.444,-39.194031c6.276001,-19.429993 13.212982,-38.987 13.56601,-59.917969c0.106995,-6.391052 1.495972,-12.757019 1.651978,-19.150024c0.411011,-16.847961 4.628998,-34.241028 -8.230988,-49.136047c-3.460999,-4.008972 -4.785004,-9.863953 -7.039001,-14.760925c-0.455017,-0.062012 -0.753998,-0.203003 -0.921997,-0.110046c-14.997009,8.320007 -30.018005,16.598022 -44.891022,25.13501c-0.982971,0.565002 -1.423981,3.256958 -1.098999,4.735962c3.13501,14.242065 8.077026,28.292053 9.373016,42.680054c1.575989,17.515015 1.260986,35.403992 -0.325012,52.942993c-1.520996,16.826965 -6.125977,33.171021 -12.449005,49.151001c-6.719971,16.984985 -14.062988,33.44397 -25.096985,47.997986c-7.484009,9.872009 -13.556,19.639038 -5.003998,33.984009zm399.352051,-1.169983c1.625,-6.677979 2.85498,-11.400024 3.867004,-16.169983c0.213989,-1.007019 -0.069031,-2.390991 -0.647034,-3.247986c-2.460999,-3.650024 -5.28595,-7.061035 -7.671997,-10.757019c-5.800964,-8.981018 -12.002991,-17.770996 -16.957947,-27.210022c-4.414001,-8.411011 -7.708008,-17.468994 -10.875,-26.459961c-3.092041,-8.774048 -6.038025,-17.697021 -7.881042,-26.790039c-2.151001,-10.622009 -2.60199,-21.588989 -4.781982,-32.200989c-0.541016,-2.63501 -4.682983,-5.945007 -7.565002,-6.392029c-6.276001,-0.971985 -12.807007,-0.300964 -19.562012,-0.300964c0,-3.267029 0,-6.273987 0,-10.661011c5.67804,0 11.184998,0.40802 16.598999,-0.130005c4.309021,-0.429016 10.195007,-0.226013 10.463989,-6.481995c0.243042,-5.700989 -3.17804,-7.945984 -9.270996,-7.411987c-7.566956,0.663025 -15.237976,0.158997 -23.235962,0.158997c0,-3.844971 0,-6.851013 0,-11.764038c9.794983,0 19.518005,-0.323975 29.203918,0.125c5.565063,0.258057 5.814087,-3.974976 6.110046,-6.925964c0.307007,-3.065979 -1.023987,-6.460999 -5.888977,-5.968994c-4.513,0.457031 -9.16803,-0.364014 -13.648987,0.223022c-4.968994,0.649963 -7.307007,-2.39502 -6.785034,-5.842041c0.423035,-2.789978 1.857971,-7.141968 7.337952,-6.328003c4.92804,0.731018 10.118042,-0.375 15.074036,0.256042c5.718994,0.727966 7.761047,-1.984985 8.604004,-6.866028c0.239014,-1.380981 0.605042,-2.84198 1.31604,-4.024048c3.713989,-6.174988 -0.540039,-8.985962 -4.851013,-11.764954c-1.72998,-1.11499 -3.575989,-2.052002 -5.35498,-3.092957c-12.227051,-7.156067 -24.391052,-14.423035 -36.766052,-21.313049c-1.23999,-0.690002 -5.22699,0.554016 -5.441956,1.481018c-2.325012,9.968994 -5.492004,20.007019 -5.855042,30.119019c-1.119995,31.144958 -1.234985,62.380981 8.600037,92.520996c4.690979,14.379944 8.97998,29.085999 15.607971,42.584961c6.597046,13.436035 16.763,25.083984 23.809998,38.342041c11.177002,21.028931 30.950012,33.745972 46.447021,52.292969zm197.472961,43.714966c-10.965027,-33.567993 -24.224976,-63.643005 -39.770996,-93.778992c-2.330994,2.14801 -3.630981,4.072998 -5.427002,4.856018c-4.587097,2 -10.585999,6.159973 -13.893066,4.684998c-10.062927,-4.491028 -18.026917,-12.425049 -22.103943,-23.08905c-5.062988,-13.244995 -9.419983,-26.758972 -14.40802,-40.033997c-0.828003,-2.204956 -3.104004,-4.112 -5.169006,-5.445007c-0.559998,-0.360962 -3.303955,1.568054 -4.188965,2.981018c-5.910034,9.440979 -11.79303,18.914001 -17.194031,28.648987c-1.296997,2.33905 -1.897949,6.233032 -0.854004,8.51001c5.935059,12.927002 12.468018,25.578003 18.79303,38.324036c8.197021,16.518005 16.382996,33.039978 24.585999,49.553955c4.710999,9.486023 9.447998,18.959045 14.163025,28.417053c21.075012,-7.338013 41.86499,-9.700012 65.46698,-3.629028zm-794.580078,-0.449951c7.700012,-1.247009 13.457001,-3.249023 19.054001,-2.875c13.660995,0.914978 27.341019,2.414001 40.809006,4.817017c4.026993,0.717957 5.849991,-0.184021 7.627014,-2.755005c1.995987,-2.887024 3.75,-5.979004 5.284988,-9.140015c6.978989,-14.36499 13.728989,-28.843018 20.776993,-43.174011c9.302017,-18.912964 18.947998,-37.657959 28.070999,-56.656006c1.380997,-2.876953 2.042007,-7.354004 0.772995,-10.011963c-3.875977,-8.119995 -8.664993,-15.835999 -13.490997,-23.460022c-2.302979,-3.636963 -5.496002,-6.708008 -8.740997,-10.580017c-1.255981,2.160034 -1.970001,3.113037 -2.406982,4.180054c-6.622009,16.125 -13.037018,32.336975 -19.869019,48.371948c-3.569992,8.378052 -10.432999,14.783997 -19.005981,15.870056c-6.312012,0.799988 -13.225021,-3.142029 -20.947021,-5.267029c-13.627991,27.782959 -27.162994,57.744995 -37.934998,90.679993zm661.627075,-105.065002c-6.281006,10.596985 -11.403015,20.484985 -17.749023,29.513977c-4.468018,6.356018 -7.810974,10.717041 -2.880981,19.369019c8.205933,14.401978 13.616028,30.367981 20.853943,45.359985c6.729065,13.937988 14.215088,27.515991 21.596069,41.127991c1.39093,2.56604 3.856018,4.552002 4.812012,5.643005c9.805969,-8.302979 19.057983,-15.92395 27.974976,-23.917969c1.328003,-1.190979 1.947021,-4.398987 1.390991,-6.212036c-1.140015,-3.705994 -3.287964,-7.10498 -5.044983,-10.619995c-7.419006,-14.838989 -15.004028,-29.597961 -22.229004,-44.531006c-7.797974,-16.122986 -15.187988,-32.441956 -22.947998,-48.58197c-1.138977,-2.365051 -3.35498,-4.210999 -5.776001,-7.151001zm-529.978943,0.075989c-6.886002,13.825989 -13.235992,26.534973 -19.548996,39.263977c-11.822998,23.838013 -23.675003,47.662048 -35.315994,71.58905c-0.746002,1.531982 -0.569,4.708984 0.503998,5.737976c8.334,7.992981 16.899994,15.755981 25.67601,23.262024c1.041992,0.891968 4.873001,0.532959 5.547989,-0.483032c4.149002,-6.244019 8.162994,-12.645996 11.47699,-19.362976c8.539001,-17.307007 16.769012,-34.769043 24.955002,-52.247009c3.179001,-6.788025 5.042007,-14.361023 9.115005,-20.509033c3.195984,-4.82196 2.605011,-7.929016 -0.002014,-12.187988c-5.78598,-9.448975 -11.176971,-19.138977 -16.893982,-28.630005c-1.262009,-2.096985 -3.206009,-3.781982 -5.514008,-6.432983zm154.225006,-389.168884c2.300995,4.840973 4.516998,9.504944 6.733002,14.168915c1.060974,-11.916931 -0.896027,-15.627899 -6.733002,-14.168915z" clip-rule="evenodd" fill-rule="evenodd" fill="#000000"/>
  <path id="svg_42" d="m580.950989,323.521118c3.721985,11.471924 -1.026001,18.020905 -12.210022,16.416901c-7.444946,-1.069 -14.335999,-0.290009 -21.566956,4.447998c6.554993,6.575989 18.421997,1.881989 23.474976,10.540985c-6.002014,4.140991 -11.231995,7.837006 -16.570984,11.373993c-1.330017,0.882019 -3.010986,1.78302 -4.518005,1.762024c-9.914001,-0.141998 -19.825989,-0.532013 -31.343994,-0.893005c1.794983,-2.795013 3.81897,-5.166992 4.85199,-7.912018c0.460999,-1.224976 -0.621033,-3.733978 -1.794006,-4.720001c-2.273987,-1.91098 -7.122009,-2.991974 -7.263,-4.713989c-0.245972,-3.015991 1.382019,-7.786987 3.754028,-9.140991c11.436951,-6.52594 23.372986,-12.174927 35.156006,-18.088898c2.295959,-1.151978 4.689941,-2.111969 7.04895,-3.139954c8.02002,-3.494995 14.739014,-0.447998 21.132996,4.221954c0.001038,0.002991 -0.151978,-0.154999 -0.151978,-0.154999zm-22.724976,35.152893c-0.557983,-4.675018 -8.765991,-9.209015 -12.166992,-6.559998c-0.744995,0.579987 -0.53302,2.388 -0.762024,3.630981c4.40802,0.542023 7.34198,7.59201 12.929016,2.929016zm-21.106018,6.023987c1.882019,-4.045013 2.934021,-6.308014 3.986023,-8.571014c-2.389038,-0.681 -4.778015,-1.362976 -7.166992,-2.043976c-0.402039,0.602997 -0.805054,1.203979 -1.207031,1.806976c1.134033,2.276031 2.268005,4.553009 4.388,8.808014z" clip-rule="evenodd" fill-rule="evenodd" fill="#000000"/>
  <path id="svg_44" d="m464.908997,610.801025c3.105011,2.426025 5.597992,3.846008 7.386017,5.882996c3.556,4.051025 7.043976,6.366028 12.957001,4.452026c3.041992,-0.983032 6.880981,0.828003 10.348999,0.761963c10.210999,-0.195007 20.469971,-0.221008 30.59198,-1.360962c3.142029,-0.354004 5.716003,-4.427002 8.913025,-6.103027c1.994995,-1.046021 4.669983,-0.791016 7.040955,-1.120972c0.143005,2.699951 1.26001,5.841003 0.271057,8.028992c-5.859009,12.95697 -17.754028,11 -28.702026,10.778992c-12.845001,-0.257996 -25.681,-0.934021 -38.524017,-1.312988c-6.345001,-0.187988 -13.713989,-6.480042 -13.898987,-12.80304c-0.05899,-1.97998 1.94101,-4.018982 3.615997,-7.203979z" clip-rule="evenodd" fill-rule="evenodd" fill="#000000"/>
  <path id="svg_45" d="m438.958008,630.125977c-8.609009,-0.002991 -17.221985,0.140015 -25.821991,-0.120972c-1.739014,-0.05304 -4.519012,-1.329041 -4.864014,-2.582031c-0.411987,-1.490967 0.938019,-3.862 2.173004,-5.291016c0.95401,-1.102966 2.916992,-1.895996 4.417999,-1.873962c10.70401,0.152954 21.403992,0.688965 32.109009,0.80896c4.871002,0.054016 9.747986,-0.769958 14.622986,-0.786987c2.255005,-0.007996 4.83902,0.463013 6.669006,1.648987c1.432007,0.93103 3.11499,4.057007 2.596008,4.865051c-1.028015,1.60199 -3.470001,3.119995 -5.381012,3.190002c-8.830994,0.328003 -17.679016,0.14502 -26.520996,0.141968z" clip-rule="evenodd" fill-rule="evenodd" fill="#000000"/>
  <path id="svg_46" d="m489.346008,492.720001c1.061005,-2.713989 1.598999,-4.093018 2.348999,-6.011993c-14.122986,1.602997 -24.626984,-4.386017 -33.832001,-14.463013c24.427002,10.485016 48.153015,7.817993 71.741974,0.984009c-0.021973,-1.313995 -0.044983,-2.628021 -0.065979,-3.942993c-6.539001,0 -13.082031,0.15799 -19.615997,-0.031006c-16.208008,-0.468018 -32.415009,-1.007019 -48.610992,-1.769012c-2.052002,-0.096008 -4.340027,-1.359009 -5.868988,-2.781982c-0.495026,-0.460022 0.598999,-3.975006 1.803986,-4.699005c8.779999,-5.27301 16.450989,-13.416016 28.048004,-11.955017c2.497986,0.315002 4.868988,1.673004 7.36499,1.959015c3.084015,0.354004 6.666992,1.071991 9.291016,-0.071991c12.413971,-5.414001 30.735016,0.367981 37.144012,12.224976c2.665955,4.934021 -1.005005,14.447021 -5.804016,17.826019c-7.387024,5.199005 -15.018982,8.466003 -24.207001,6.970978c-0.910004,-0.14798 -2.60199,-0.125 -2.734009,0.246002c-3.096008,8.653015 -10.283997,3.901031 -17.003998,5.515015zm-15.919006,-32.65799c5.187988,0 10.376984,0 15.985992,0c-5.777985,-9.657013 -10.924988,-2.29599 -15.985992,0zm36.967987,-3.089996c0.020996,0.902008 0.041992,1.804993 0.062988,2.707001c4.195038,0.34201 8.391022,0.68399 12.586029,1.026001c0.026978,-0.781006 0.054993,-1.561005 0.08197,-2.341003c-4.276001,0.061005 -8.164001,-6.223999 -12.730988,-1.391998z" clip-rule="evenodd" fill-rule="evenodd" fill="#000000"/>
  <path id="svg_47" d="m426.225006,350.776001c6.067993,-1.984009 11.602997,-3.794006 18.563019,-6.069c-2.466003,-1.334015 -3.71701,-2.567017 -5.002014,-2.604004c-4.18399,-0.122009 -8.382996,0.358002 -12.571014,0.304016c-7.394989,-0.093018 -12.623993,-5.600006 -12.635986,-13.041931c-0.009003,-5.855957 4.381012,-9.352966 12.260986,-9.728943c10.107025,-0.481995 18.872009,3.748962 27.376007,8.32193c8.660004,4.656982 17.289001,9.527954 25.20401,15.300934c1.807983,1.317993 1.22699,6.850983 0.520996,10.18399c-0.261993,1.238007 -4.036987,1.730011 -7.10199,2.904999c1.746979,3.964996 3.92099,8.89801 6.55899,14.886993c-6.867004,-1.362 -11.690002,-2.681 -16.598999,-3.196991c-5.533997,-0.582001 -11.507019,0.705994 -16.625,-0.915985c-5.805023,-1.838013 -11.051025,-5.744019 -16.164001,-9.294006c-1.70401,-1.182007 -2.243011,-4.040985 -3.785004,-7.052002zm9.263,7.765015c2.899994,0.985992 5.343018,1.815002 7.274017,2.471008c2.169983,-1.798004 4.269989,-3.080017 5.669983,-4.899017c0.662994,-0.860992 0.558014,-3.453003 -0.181,-4.052979c-3.105011,-2.527008 -11.218994,1.360992 -12.763,6.480988zm28.382996,-2.367004c-0.576996,-0.875 -1.154999,-1.75 -1.730988,-2.625c-3.167023,1.121002 -6.333008,2.242004 -9.499023,3.362c0.112,0.984985 0.223022,1.970001 0.335022,2.954987c2.478973,0.522003 5.125,1.798004 7.375977,1.296021c1.471008,-0.328003 2.365997,-3.236023 3.519012,-4.988007z" clip-rule="evenodd" fill-rule="evenodd" fill="#000000"/>
  <path id="svg_48" d="m467.785004,426.359009c-4.673004,-9.125 -3.085999,-18.023987 7.712982,-24.782013c-0.625,2.391022 -0.899994,4.947021 -1.936981,7.144012c-4.194,8.891998 -2.86499,11.20401 6.561981,12.506989c3.409027,0.471008 6.735016,2.251007 9.861023,3.888c5.484985,2.873016 10.380005,3.574005 15.803986,-0.656982c2.58902,-2.018005 6.668976,-2.015015 9.894012,-3.360016c2.903015,-1.210999 6.335999,-2.455994 8.005005,-4.78299c0.862,-1.203003 -1.692017,-4.76001 -2.535034,-7.30899c-0.848999,-2.569 -1.488953,-5.207001 -2.434998,-8.572998c8.611023,2.431976 16.355042,11.804993 16.609009,17.207977c-4.669983,5.200012 -8.671997,9.654999 -12.987,14.462006c-5.695007,-4.330994 -10.380981,-1.868988 -15.809998,1.024994c-3.334991,1.778015 -8.419983,1.469025 -12.394989,0.606018c-8.609009,-1.867004 -17.009003,-4.695007 -26.348999,-7.376007z" clip-rule="evenodd" fill-rule="evenodd" fill="#000000"/>
  <path id="svg_49" d="m546.836975,305.732239c-5.586975,1.135986 -11.132996,2.559967 -16.768982,3.342987c-8.617004,1.195984 -17.372986,3.179962 -25.933014,2.640961c-19.040985,-1.199982 -37.996002,-3.759949 -56.985992,-5.75296c-2.82901,-0.296997 -5.718018,-0.291992 -8.47702,-0.895996c-1.258972,-0.276001 -2.266998,-1.697968 -3.388977,-2.599976c1.260986,-0.975006 2.570984,-2.827972 3.772003,-2.759979c3.717987,0.209991 7.373993,1.31601 11.09198,1.774994c10.998993,1.358978 22.190002,1.75 32.981995,4.043976c15.346008,3.26297 29.755005,0.210999 44.492981,-3.277985c8.634033,-2.043976 17.704041,-2.369995 26.610046,-3.011993c1.711975,-0.123993 3.576965,1.876984 5.371948,2.89798c-1.609985,1.182007 -3.065002,2.847992 -4.869995,3.427002c-2.440979,0.78299 -5.148987,0.730988 -7.742981,1.036987c-0.050964,-0.287994 -0.10199,-0.576996 -0.153992,-0.865997z" clip-rule="evenodd" fill-rule="evenodd" fill="#000000"/>
 </g>
</svg>