<svg xmlns:svg="http://www.w3.org/2000/svg" xmlns="http://www.w3.org/2000/svg" version="1.1" width="249" height="271" id="svg2">
  <defs id="defs4"/>
  <g transform="translate(95.928574,-331.14789)" id="layer1" style="display:inline">
    <path d="m 21.478606,592.69409 c -6.87146,-1.92235 -16.01606,-7.45607 -21.019838,-12.71984 -13.653129,-14.36256 -24.56693,-37.11144 -31.100524,-64.82636 -1.749685,-7.42201 -3.416805,-11.02757 -7.397998,-16 -4.076688,-5.09171 -9.495129,-17.57472 -10.634592,-24.5 -2.039284,-12.39409 1.839964,-26.81687 10.572954,-39.30953 3.418051,-4.88956 4.97626,-8.51538 6.877877,-16.00421 3.67001,-14.453 9.560644,-30.60884 14.71267,-40.35143 2.520249,-4.76585 4.582271,-9.15335 4.582271,-9.75 0,-4.64126 -18.110851,6.78121 -32.569978,20.54181 -10.690904,10.17442 -19.260815,24.67644 -24.153951,40.87336 -3.753077,12.42318 -4.352661,15.72197 -4.907481,27 -1.273914,25.89533 5.808311,48.38827 21.989399,69.83766 4.979067,6.60018 13.5818,15.21181 20.192375,20.21327 1.377606,1.04228 3.28098,3.24602 3.548013,3.29368 -2.371182,3.5909 -5.314858,7.36795 -8.654155,10.16159 -1.864818,-1.21458 -18.24113,-14.93123 -19.8825,-16.99695 -5.342284,-5.67841 -9.619742,-11.55247 -13.558141,-18.15894 -7.964516,-12.41919 -10.810772,-19.13654 -15.614112,-36.85031 -2.195382,-8.09613 -3.305405,-32.78651 -0.510765,-48.5 4.002184,-22.50317 14.943937,-42.22316 32.007242,-60.64014 13.004194,-14.03586 34.718098,-27.13356 53.614054,-32.3397 4.95,-1.3638 12.825,-3.82918 17.5,-5.4786 9.70159,-3.42291 13.72057,-3.68698 22.29568,-1.46494 9.33826,2.41978 13.57658,5.04424 21.42102,13.26431 12.00674,12.5817 24.06907,37.18028 30.37246,61.93823 3.18463,12.50832 3.46128,13.14579 9.419764,21.70499 6.48471,9.31513 8.87045,17.07022 8.92633,29.01585 0.0405,8.66711 -0.33012,10.96606 -2.78085,17.24786 -1.55518,3.98632 -5.26364,10.90834 -8.241014,15.38228 -2.97736,4.47393 -5.41339,8.73582 -5.41339,9.47086 0,3.23495 -6.60974,24.7003 -10.13046,32.899 -3.83496,8.93047 -4.68693,12.5 -2.98349,12.5 2.12775,0 13.74006,-8.78412 20.923654,-15.82768 17.31674,-16.97919 27.19764,-36.0054 30.73,-59.17232 4.55104,-29.84786 -2.35369,-57.63212 -20.14529,-81.06362 -4.63272,-6.10128 -14.597824,-15.68874 -20.274864,-19.5065 -1.99075,-1.33877 -10.425671,-7.76063 -12.420313,-9.2377 2.056899,-4.06906 4.819188,-8.11247 7.479932,-11.36003 0.171247,4e-5 5.390081,3.68492 13.053461,9.621 21.928314,16.98575 36.941844,39.20144 43.283364,64.04685 2.47751,9.70666 4.56041,27.52865 3.97365,34 -0.19948,2.2 -0.64268,7.0292 -0.9849,10.73156 -2.34885,25.4117 -14.80513,51.23554 -33.92699,70.33605 -12.383724,12.3699 -25.002624,20.5038 -41.226944,26.57409 -3.5831,1.34061 -7.81483,4.10757 -11.59019,7.57836 -11.28317,10.37295 -25.94976,15.01641 -37.35344,11.82614 z m 16.34282,-8.78171 c 1.099247,-1.34524 1.7373,-88.24349 0.17146,-88.44303 -1.444235,-0.18404 -14.134739,0.37995 -15.13768,0.56593 -1.454919,0.2698 -2.340143,87.86076 -0.852045,88.16729 2.355499,0.4852 13.312035,0.1342 15.818265,-0.29019 z m -23.32276,-5.64676 c 0.2999,-0.48525 0.61221,-19.92735 0.69402,-43.20467 l 0.14874,-42.32239 -2.32718,-1.54534 C 9.633086,488.94801 1.26398,480.23939 -1.620451,475.96483 c -2.888489,-4.28056 -6.542573,-5.81694 -13.834902,-5.81694 -7.394498,0 -7.894605,0.90432 -7.059929,12.76612 0.888429,12.62568 3.20397,29.27944 5.037964,36.23388 0.79774,3.025 2.209847,8.65 3.138016,12.5 3.578084,14.84173 13.591456,34.28588 22.505888,43.70236 3.58981,3.79198 5.30286,4.58069 6.33208,2.91537 z m 40.69287,-13.90222 c 3.09106,-0.96526 6.38644,-2.39102 7.32306,-3.16834 4.42393,-3.67154 13.73364,-29.14997 17.15521,-46.94965 2.5973,-13.51169 5.08997,-39.86132 4.03175,-42.61901 -0.5515,-1.43718 -1.94973,-1.62706 -9.77709,-1.32776 l -9.13356,0.34925 -3.07568,4 c -1.69163,2.2 -6.12851,7.02192 -9.85974,10.71539 l -6.78406,6.71538 0,36.36795 c 0,20.00237 0.3,36.66795 0.66667,37.03461 1.05012,1.05013 3.40138,0.7721 9.45344,-1.11782 z m -14.60144,-77.66299 c 5.8852,-2.45094 12.169717,-13.85527 8.755377,-16.01723 -1.55745,-0.98619 -35.208977,-0.88123 -37.692257,0.0717 -3.60324,1.38269 -1.03365,9.22421 5.02265,15.32745 0.23711,0.23894 3.0106,1.00555 6.16333,1.70359 6.13894,1.3592 12.86888,0.94764 17.7509,-1.08551 z M -8.716147,462.10568 c 2.746477,-0.76278 4.927051,-2.57707 8.380582,-6.97286 2.567485,-3.268 7.084391,-7.7661 10.037571,-9.99577 2.95318,-2.22967 5.38827,-4.82687 5.41132,-5.77155 0.48474,-19.87149 -0.25458,-78.83029 -0.99782,-79.57353 -1.73214,-1.73214 -8.60526,1.08669 -11.24502,4.61186 -12.186969,16.27462 -22.378276,49.52566 -25.014034,81.61296 -1.123594,13.67845 -1.089552,14.43526 0.708462,15.75 2.234401,1.63383 7.546708,1.77538 12.718939,0.33889 z m 57.919761,-0.53739 c 2.91702,-2.8908 -2.067158,-11.73806 -8.521698,-14.80094 -4.36309,-2.07043 -17.59957,-2.19947 -21.41015,-0.20874 -4.72402,2.46794 -8.32268,7.08253 -8.90417,11.41786 l -0.54346,4.05174 4.87365,0.3231 c 11.34766,0.75229 33.121508,0.58886 34.505828,-0.78302 z m 33.914632,0.0232 c 1.04309,-1.25686 1.06873,-4.29924 0.13322,-15.80723 -1.86978,-23.00054 -5.96237,-41.64446 -12.98121,-59.13636 -6.29749,-15.69418 -21.46624,-35.89926 -24.59906,-32.76644 -0.32987,0.32988 -0.59977,20.09977 -0.59977,43.93311 0,48.4316 -0.74479,43.40931 7.35932,49.62586 2.00224,1.5359 5.41768,5.1983 7.58986,8.13867 4.35409,5.89393 7.4494,7.27943 16.67838,7.46545 3.52022,0.071 5.53246,-0.38454 6.41926,-1.45306 z m -44.28651,-67.71442 0.26031,-44.77083 c -5.121181,-2.21734 -11.2644,-2.58772 -16.32948,-0.0493 -0.89584,0.89594 -1.10611,12.02418 -0.84817,44.88705 0.18863,24.03267 0.50494,43.95784 0.70291,44.27816 l 16.043406,0.0686 0.171024,-44.41369 0,-2e-5 0,3e-5 z" id="path2832" style="fill:#FFD700;fill-opacity:1;stroke:none"/>
  </g>
</svg>