<?xml version="1.0"?>
<svg width="1000" height="1000" xmlns="http://www.w3.org/2000/svg" xmlns:svg="http://www.w3.org/2000/svg">
 <g>
  <title>Layer 1</title>
  <path fill="black" fill-rule="evenodd" clip-rule="evenodd" d="m832.640015,997.176025c-224.161011,0 -448.321991,0 -672.481995,0c-1.408005,-3.484009 -1.891006,-8.85199 -4.404999,-10.090027c-6.610001,-3.248962 -14.050995,-4.902954 -21.264999,-6.79895c-4.514008,-1.187012 -9.294998,-1.347046 -13.815002,-2.519043c-10.100998,-2.61499 -14.606003,0.636047 -14.662003,10.869995c-0.014999,2.847046 -0.372993,5.69104 -0.573997,8.537048c-15.600998,0 -31.200996,0.032959 -46.799999,-0.062012c-1.202999,-0.007019 -2.400002,-0.89801 -3.601002,-1.377991c0.669003,-1.700012 1.490002,-3.358032 1.984001,-5.106995c4.115002,-14.552002 7.799004,-29.237 12.341003,-43.653015c5.032997,-15.975037 10.866997,-31.695984 16.289993,-47.549988c5.434006,-15.888 10.555,-31.886047 16.239006,-47.683044c6.778,-18.839966 14.000999,-37.519958 21.042999,-56.263977c3.716995,-9.892029 7.534996,-19.745972 11.174004,-29.664978c6.835999,-18.632019 14.360001,-37.061035 20.132996,-56.020996c5.584,-18.33905 9.880005,-37.127014 13.654999,-55.938049c2.031006,-10.122986 2.757004,-20.528992 -1.334,-30.912964c-7.151993,-18.145996 1.856003,-38.427979 15.268005,-47.865967c11.268997,-7.932007 22.256989,-16.324036 32.776001,-25.213013c2.455994,-2.075012 4.384995,-7.666992 3.363998,-10.484009c-5.775009,-15.937988 0.728989,-28.608032 10.345001,-39.892029c8.901001,-10.444 18.934998,-19.998993 29.044983,-29.320007c13.161011,-12.132996 27.674011,-22.373993 44.410004,-29.298981c4.119995,-1.705017 8.356995,-4.554993 11.02002,-8.040009c4.654999,-6.095001 7.061981,-14.134003 12.304993,-19.51001c15.039001,-15.417999 28.842987,-31.71698 39.647003,-50.325989c6.867981,-11.830994 13.679993,-23.865997 18.783997,-36.507904c7.333008,-18.163879 12.777008,-37.079773 19.623993,-55.452637c4.667999,-12.527924 8.468994,-26.024902 16.069,-36.646912c9.121002,-12.748993 21.166016,-23.724014 33.207001,-33.986038c18.03299,-15.368042 40.641998,-21.330078 63.418976,-22.408066c30.91803,-1.463013 59.155029,8.69902 82.735046,29.237091c15.133972,13.181015 28.617004,27.944016 34.382996,48.057022c3.653992,12.74791 6.572998,25.80983 11.463013,38.07576c7.792969,19.549866 16.075989,39.011749 25.773987,57.666687c10.395996,20 22.680969,38.988007 39.487976,54.562988c8.02002,7.432007 15.942993,14.927002 19.207031,26.100006c0.802979,2.747009 3.997986,5.324005 6.719971,6.886993c10.285034,5.904999 21.158997,10.82901 31.200989,17.098999c18.632996,11.632019 33.822998,27.407013 47.799011,44.022003c8.747986,10.400024 14.822998,22.94104 9.867004,37.530029c-2.854004,8.401978 0.59198,14.015015 7.046997,18.968018c10.020996,7.687988 19.687988,15.837952 29.716003,23.519958c12.857971,9.851013 16.432983,27.484009 11.075012,41.289001c-6.73999,17.367981 -14.018005,34.182007 -7.281006,53.497986c6.604004,18.939026 11.265991,38.596985 18.559998,57.243042c7.994019,20.434998 18.864014,39.740967 26.917969,60.156982c6.993042,17.724976 13.314026,35.992981 17.219055,54.59198c5.763,27.450989 9.633972,55.340027 13.31897,83.174011c2.569031,19.397034 3.445007,39.018982 5.179993,58.530029c0.182983,2.062988 1.052002,4.063965 1.604004,6.094971c0.880981,4.442017 -2.492004,2.824036 -4.320007,2.830994c-20.159973,0.079041 -40.320007,0.049011 -60.47998,0.049011c0.098999,-2.119995 0.195007,-4.240967 0.294006,-6.359985c-2.151001,0.408997 -4.487,0.424988 -6.411987,1.32196c-2.911011,1.357056 -5.535034,3.328003 -8.281006,5.038025c-0.960999,0 -1.920044,0 -2.880005,0c-8.117004,-8.469971 -7.429016,-8.104004 1.666016,-16.099976c5.587952,-4.915039 19.440979,-5.322998 12.661987,-19.541016c-2.139038,-4.484985 -4.054993,-5.070007 -7.132019,-3.507996c-14.031982,7.130005 -28.520996,13.531006 -38.781006,26.450012c-3.492981,4.403931 -4.777039,7.999939 -1.533997,12.701965zm-410.269012,-229.567017c-39.256989,-8.455017 -68.157013,-30.247009 -93.386017,-56.994019c0.513,6.901001 1.002014,13.096008 1.422028,19.296021c0.194977,2.867981 -0.569,6.109009 0.513,8.559998c6.174988,13.991028 12.402985,28.106995 23.516998,39.044006c6.73999,6.632996 13.742981,13.257996 21.579987,18.447998c8.213013,5.440002 17.213013,10.210022 26.520996,13.326965c8.549011,2.861023 17.966003,3.133057 26.067017,4.399048c3.048004,1.737 5.871002,2.747009 7.860992,4.633972c2.502991,2.372986 6.169006,5.64502 5.92099,8.195984c-0.246979,2.546021 -4.648987,6.561035 -7.338989,6.650024c-8.583008,0.286011 -17.651001,1.5 -25.313995,-4.507019c-1.152008,-0.902954 -3.22702,-0.540955 -4.802002,-1.010986c-7.609009,-2.27301 -16.126007,-3.162964 -22.58902,-7.27002c-12.715973,-8.078979 -24.517975,-17.679993 -36.217987,-27.237c-4.582001,-3.742004 -7.875,-9.061951 -12.915009,-15.039001c0,4.190002 -0.197998,6.92804 0.036011,9.627014c0.772003,8.884033 2.921997,17.862 2.141998,26.588989c-0.52301,5.863037 1.266998,6.330994 5.569,6.89801c5.082001,0.670044 10.175995,1.507019 15.131012,2.791992c4.513,1.170044 7.60199,4.936035 5.631989,9.082031c-1.355011,2.85199 -5.709015,5.02002 -9.140991,5.945007c-3.809998,1.026978 -8.125,0.627991 -12.163025,0.247009c-5.233978,-0.493042 -7.68399,1.045959 -6.90097,6.68396c1.130981,8.140991 1.638977,16.380005 3.080994,24.458008c0.813995,4.554993 4.348999,6.059021 9.365997,5.179993c-1.899994,-3.117004 -4.027008,-5.317993 -4.601013,-7.868958c-0.72998,-3.244019 6.914001,-11.119019 10.151001,-11.229004c4.987,-0.171021 10.33902,5.110962 10.665009,10.526001c0.566986,9.43396 2.565002,10.770996 11.80899,7.899963c-9.515991,-6.937988 -9.386993,-8.713013 0.985016,-14.133972c0.623993,-0.325989 1.118988,-1.288025 1.674988,-1.290039c3.649994,-0.011963 8.067993,-1.046997 10.718018,0.639038c2.277985,1.448975 2.944,6 3.529999,9.31897c0.319,1.812988 -1.008026,3.916992 -1.708008,6.281006c4.984985,0 9.470001,0 12.673981,0c-1.007996,-3.226013 -3.23999,-6.494019 -2.612,-9.065979c2.018005,-8.264038 9.357025,-9.562988 16.292023,-11.088013c0.917999,2.13501 1.751984,3.833008 2.382996,5.604004c0.695984,1.953979 2.171997,4.296997 1.63501,5.914001c-3.004028,9.031006 0.113983,9.96698 8.784973,9.411987c18.110016,-1.158997 36.353027,-0.140991 54.5,-0.937988c4.482025,-0.197021 10.666016,-2.786011 12.798004,-6.27301c3.759003,-6.148987 6.778015,-13.804993 6.904999,-20.885986c0.221008,-12.325012 7.359009,-22.898987 6.308014,-35.739014c-0.804016,-9.812988 4.35199,-19.96698 4.921021,-30.076965c0.813965,-14.472046 2.544983,-29.172058 -4.795013,-43.131042c-2.406006,-4.576965 -1.182007,-10.971008 -2.182007,-16.430969c-0.364014,-1.985046 -2.372009,-3.671021 -4.138,-6.229004c-2.785004,5.117004 -4.778992,8.779968 -7.602997,13.968994c-1.442993,-8.401978 -2.524017,-14.692993 -3.628021,-21.116028c3.024017,0.532043 5.176025,0.910034 7.328003,1.288025c-0.569,-2.018982 -0.52298,-4.638 -1.810974,-5.952026c-6.150024,-6.284973 -12.203003,-12.84198 -19.244019,-18c-3.384003,-2.479004 -9.359009,-3.778992 -13.324005,-2.656006c-11.043976,3.129028 -21.605988,3.771057 -32.403992,-0.392944c-1.006012,-0.388 -2.641998,0.427979 -3.828003,1.005981c-9.049011,4.414978 -17.833008,5.646973 -27.970001,2.175964c-7.803009,-2.671997 -17.145996,-4.317993 -24.993988,-2.638977c-14.660004,3.138 -28.737,2.108032 -44.036987,-0.291016c2.256989,4.342041 3.60199,9.145996 6.644989,12.322998c6.727997,7.025024 13.985992,13.644043 21.627991,19.666016c8.505005,6.703003 17.182007,13.48999 26.683014,18.552979c12.056,6.424011 24.882996,11.495056 37.643005,16.473022c7.229004,2.820007 14.877991,4.981018 22.535004,6.192993c10.602997,1.67804 21.382996,2.289001 32.103973,3.153015c6.70401,0.541016 10.688019,4.012024 10.574005,9.718994c-0.140991,7.127014 -4.643005,8.940002 -10.640991,8.338989c-7.730988,-0.776001 -15.440002,-1.81897 -23.127991,-2.951965c-4.113007,-0.606995 -8.128998,-1.882019 -12.246002,-2.434021c-6.662018,-0.893982 -13.041992,-6.098999 -20.261017,-0.598022c-1.806976,1.377014 -5.78598,-0.097961 -8.766998,-0.261963c0,-0.689026 -0.000977,-1.381042 -0.001984,-2.070007c2.054993,-0.656006 4.108978,-1.314026 8.458984,-2.708008zm-99.011993,-295.165009c0.278015,0.042999 0.556,0.088013 0.834015,0.131989c0.495972,1.723999 0.774994,3.575012 1.64798,5.081024c0.212006,0.362976 2.701996,-0.019012 3.617004,-0.734009c6.181,-4.833008 12.306,-9.746002 18.290009,-14.821014c21.773987,-18.462982 32.841003,-43.576996 41.970001,-69.559998c4.286987,-12.203003 6.005981,-25.056976 11.096985,-37.359985c7.175995,-17.343994 17.703003,-31.748901 30.016022,-45.197815c4.743988,-5.180969 10.606995,-9.479919 16.428986,-13.500916c14.269989,-9.855927 30.19101,-16.039886 47.088013,-19.708862c6.109985,-1.326996 12.871979,-1.674988 11.007996,-10.957947c-0.167023,-0.825989 0.483002,-1.795959 0.664001,-2.715973c1.812988,-9.231949 4.757996,-18.42395 5.112,-27.713943c0.437988,-11.51001 -1.57901,-23.093002 -1.968018,-34.66304c-0.322998,-9.637039 -0.341003,-10.882034 -9.542999,-9.327042c-8.417999,1.423019 -16.457001,5.249023 -24.574982,8.252029c-16.34201,6.048019 -29.549011,16.788055 -39.821014,30.348053c-7.268005,9.593994 -12.696991,20.772003 -17.751984,31.790955c-3.978027,8.671936 -6.183014,18.163879 -9.081024,27.320831c-3.098999,9.789917 -5.272003,19.966858 -9.313995,29.342804c-6.132996,14.225922 -13.255005,28.050842 -20.485992,41.767853c-4.920013,9.330994 -9.821014,18.929016 -16.376007,27.084991c-10.712982,13.32901 -23.113983,25.292023 -34.048004,38.458008c-3.319977,3.998993 -5.556,9.989014 -5.830994,15.196991c-0.556,10.446014 0.583008,20.984009 1.022003,31.485016zm235.369019,-76.014984c-3.239014,14.526001 17.700989,43.507996 35.588989,48.977997c2.006042,-3.484985 4.338989,-6.809998 5.94104,-10.455994c4.579956,-10.423004 8.424988,-21.190002 13.388977,-31.419006c4.94397,-10.190002 9.770996,-20.848999 6.526978,-31.803986c-4.513,-15.248016 -11.268005,-29.274017 -28.375,-35.734985c-11.34198,-4.283966 -21.927002,-4.509949 -33.33197,-1.869965c-11.504028,2.661957 -23.187012,4.553955 -34.804016,6.71994c-0.900024,0.167999 -1.904968,-0.108978 -2.84198,-0.28299c-4.621033,-0.851013 -9.239014,-1.712982 -13.851013,-2.612976c-10.93399,-2.130981 -21.789001,-4.836975 -32.80899,-6.324951c-31.548004,-4.263 -60.742004,24.228912 -52.14801,55.822906c3.687988,13.555023 10.477997,26.281006 16.056,39.300018c2.90799,6.787994 6.244995,13.391998 9.484009,20.279999c3.192993,-1.447021 4.803986,-1.947998 6.166992,-2.830017c15.200989,-9.836975 25.143005,-23.798981 31.127991,-40.638977c0.77301,-2.174011 0.437012,-5.834015 -0.962982,-7.327026c-1.027008,-1.095978 -4.844025,-0.309998 -7.056,0.558014c-14.08902,5.528992 -29.628998,-3.959991 -28.275024,-18.22699c1.508026,-15.881012 11.438019,-21.979004 28.45401,-17.565002c23.330017,6.052979 46.453033,8.273987 70.076996,2.815002c4.612,-1.06601 9.301025,-3.071014 13.85498,-2.821014c6.82605,0.375 12.780029,-5.218994 20.425049,-1.02301c6.534973,3.587006 15.156006,12.953003 13.643982,20.230011c-1.731018,8.332001 -8.262024,18.300995 -18.359985,18.307007c-5.959045,0.001984 -11.919067,-1.334015 -17.921021,-2.074005zm276.014954,369.851013c-8.492004,2.580017 -17.319031,4.731995 -25.73999,7.952026c-10.463989,4.000977 -20.596008,8.872986 -30.864014,13.386963c-11.028992,4.850037 -10.843018,5.013 -6.710999,15.915039c5.47699,14.447998 10.78302,28.97998 15.531006,43.680969c5.994019,18.562988 11.416992,37.312988 16.945007,56.02301c1.458008,4.934021 3.078979,5.122986 7.591003,2.44397c14.427002,-8.562988 28.901001,-17.232971 45.570007,-21.026001c9.468994,-2.153992 10.704956,-5.333008 6.586975,-14.414978c-1.89801,-4.187012 -3.132996,-8.791016 -3.937988,-13.335999c-2.345032,-13.231995 -4.226013,-14.109009 -16.53302,-8.013977c-4.359009,2.158997 -9.151978,3.794983 -13.927979,4.589966c-1.786011,0.299011 -4.862,-2.05896 -5.89502,-3.984985c-0.786011,-1.463989 0.129028,-4.645996 1.369019,-6.195007c1.695984,-2.117981 4.27301,-3.684998 6.731018,-5.01001c6.563965,-3.537964 13.265991,-6.82196 18.867981,-9.674988c-2.090027,-6.393982 -3.799988,-11.630005 -5.811035,-17.781982c-1.643982,0 -5.502991,-0.960999 -8.57196,0.187988c-7.679993,2.874023 -14.973022,6.766968 -22.476013,10.130005c-5.507996,2.471008 -9.307007,0.223999 -8.523987,-5.820007c0.395996,-3.078979 2.958008,-7.130005 5.653015,-8.426025c7.545959,-3.625977 15.780945,-5.790955 23.5,-9.102966c2.201965,-0.945984 5.208984,-3.997009 5.033997,-5.812012c-0.755005,-7.861023 -2.552002,-15.623047 -4.387024,-25.710999zm-324.249969,-138.20105c-0.838989,-1.435974 -1.015991,-2.090027 -1.27301,-2.124023c-1.880981,-0.242004 -3.796997,-0.618958 -5.665985,-0.475952c-18.308014,1.395996 -36.759003,-2.751038 -55.097992,2.425964c-5.404022,1.523987 -12.082001,-1.518005 -18.185028,-2.39801c-7.051971,-1.018982 -14.132996,-1.848999 -21.167999,-2.964966c-11.580994,-1.837036 -23.073975,-4.479004 -34.71698,-5.587036c-11.652008,-1.107971 -21.796021,-4.511963 -30.373993,-12.695007c-1.573029,-1.500977 -4.78302,-1.247986 -7.21402,-1.895996c-5.596985,-1.490967 -11.231995,-2.869995 -16.752991,-4.607971c-6.778015,-2.13501 -13.524017,-4.406982 -20.157013,-6.953979c-7.953979,-3.054993 -15.705994,-6.707031 -24.578003,-5.991028c-0.40799,0.03302 -0.799988,-1.172974 -1.362976,-1.406982c-6.723999,-2.794006 -13.479004,-5.513977 -20.226013,-8.252991c0.854996,4.687988 2.247009,7.64502 4.235016,10.122009c4.853973,6.044983 10.031982,11.829956 14.964996,17.812988c0.958984,1.164001 1.509979,2.713989 2.052002,4.159973c0.862976,2.30603 0.827972,5.630981 2.441986,6.862c12.867004,9.817993 24.144012,21.298035 35.437988,32.783997c0.805023,0.819031 1.862,1.77301 2.904999,1.919006c14.623016,2.039001 29.221039,4.526978 43.919006,5.637024c6.945007,0.521973 14.070007,-1.953003 21.157013,-2.548035c13.998993,-1.177979 28.041992,-1.83197 42.039001,-3.021973c7.419006,-0.631042 14.809998,-1.763 22.158997,-2.994995c4.208008,-0.705017 8.32901,-1.985046 12.450012,-3.147034c9.517975,-2.684998 18.993988,-5.52301 28.52298,-8.167969c8.044006,-2.234985 16.139008,-4.284973 24.488007,-6.489014zm-321.94101,256.756042c1.240005,-3.364014 1.395996,-6.096008 2.822998,-7.236023c4.884995,-3.902954 10.167007,-7.320984 15.391006,-10.786011c6.335999,-4.204956 6.264999,-11.009949 -0.322006,-14.428955c-5.024994,-2.608032 -9.940002,-5.631042 -15.255005,-7.436035c-9.75499,-3.312988 -19.653992,-6.406006 -29.713989,-8.560974c-8.029999,-1.720032 -16.378006,-2.343994 -24.605011,-2.526978c-2.630997,-0.059021 -7.205994,2.401978 -7.69899,4.471985c-4.295006,18.021973 -8.245003,36.148987 -11.505005,54.387024c-1.870003,10.461975 -2.247002,21.188965 -3.365997,31.790955c-0.120003,1.144043 -0.639,2.263 -1.082001,3.350037c-2.240005,5.48999 -0.267006,8.231995 5.826996,8.335999c13.720001,0.234985 27.615997,-1.249023 40.587006,5.394958c2.828995,1.450012 5.871002,0.77301 6.227997,-4.096985c0.419998,-5.729004 1.619003,-11.473999 3.126999,-17.034973c2.080002,-7.677002 4.763,-15.19104 7.514999,-23.798035c-7.987,0 -14.487991,0.47699 -20.856995,-0.237c-2.493011,-0.279968 -6.162003,-2.937988 -6.583008,-5.052979c-0.386993,-1.940979 2.414001,-5.914978 4.621002,-6.692017c5.028,-1.771973 10.578003,-2.995972 15.871002,-2.849976c6.501999,0.178955 12.959,1.980957 18.998001,3.005981zm544.536011,-162.655029c2.31897,4.562012 3.950989,7.690002 5.512024,10.85498c6.731995,13.656006 13.934998,27.113037 19.921997,41.090027c2.396973,5.598999 4.719971,5.455994 9.006958,3.338013c11.416992,-5.641052 22.75,-11.479004 34.369995,-16.669006c5.757996,-2.572021 12.020996,-4.092041 18.150024,-5.734009c7.916992,-2.122009 8.689026,-3.109985 5.174011,-10.059998c-4.010986,-7.924988 -8.105042,-15.833984 -12.697998,-23.426025c-4.707031,-7.778015 -8.603027,-8.120972 -15.38501,-1.973999c-4.830017,4.377014 -9.520996,8.914001 -14.179016,13.47699c-3.703979,3.626038 -7.883972,3.368042 -10.507996,-0.320984c-1.588013,-2.231018 -2.156006,-7.495972 -0.669006,-9.182007c4.830994,-5.479004 10.832031,-9.924988 16.361023,-14.794006c2.507019,-2.208984 4.963989,-4.479004 6.148987,-5.550964c-6.39801,-4.533997 -12.210999,-8.651001 -19.690002,-13.950989c-12.937988,10.253967 -27.129028,21.5 -41.515991,32.901978zm91.256958,251.546021c4.882019,-4.377991 9.075012,-9.437988 14.390991,-12.63501c11.195007,-6.731995 22.968994,-12.507996 34.526001,-18.632996c4.526001,-2.398987 10.411987,-13.14502 7.612,-16.276001c-5.524963,-6.180969 -3.606995,-12.94397 -4.041992,-19.679016c-0.46698,-7.263 -4.83197,-11.050964 -10.79303,-9.670959c-4.330994,1.001953 -8.927979,1.566956 -12.859985,3.461975c-15.018005,7.236023 -29.812988,14.932007 -43.982971,22.098022c5.27301,17.868958 10.101013,34.227966 15.148987,51.333984zm-307.920959,-510.516998c-2.112976,0.240997 -4.556,1.141998 -6.684998,0.65799c-11.447998,-2.602997 -23.003998,-3.66098 -34.652008,-2.471985c-4.542999,0.464996 -9.036987,1.964996 -13.360992,3.527985c-0.838013,0.302002 -1.531006,3.399017 -0.998016,4.661011c1.694,4.006012 4.321014,7.619995 6.004028,11.630005c4.46698,10.644012 8.306976,21.562988 13.078979,32.063019c1.783997,3.925964 5.149017,7.346008 8.455994,10.23999c1.003021,0.877991 5.040009,-0.031006 6.292023,-1.39801c6.289001,-6.867004 12.85498,-12.692993 22.885986,-13.093994c5.64801,-0.22702 11.267029,-1.234009 16.229004,-1.812012c1.21698,-2.632996 2.153015,-4.888 3.275024,-7.04599c4.104004,-7.902008 -0.028015,-18.942993 -8.071045,-21.774994c-1.247009,-0.438019 -2.437988,-1.512024 -3.263,-2.591003c-3.132019,-4.104004 -6.10199,-8.330017 -9.190979,-12.59201zm-352.707031,288.082001c2.270004,0 4.490997,0.267029 6.621994,-0.060974c3.476013,-0.533997 6.936005,-2.243042 10.326996,-2.062012c8.950012,0.477966 18.003006,1.013 26.749008,2.815002c10.048004,2.06897 19.806,5.544006 29.701996,8.364014c2.173004,0.618958 4.399994,1.052002 6.600998,1.569946c-0.041992,-2.107971 -0.076004,-4.21698 -0.126999,-6.324951c-0.093994,-3.833008 0.022003,-7.688049 -0.380997,-11.488037c-0.235001,-2.216003 -0.927002,-4.57196 -2.072998,-6.467957c-3.813004,-6.30603 -7.99501,-12.389038 -11.880005,-18.653015c-1.240005,-2 -1.414001,-5.031006 -3.065994,-6.346008c-10.96701,-8.729004 -24.408005,-6.315979 -36.972992,-7.257996c-5.384003,-0.403015 -9.251007,3.432983 -11.265015,8.916016c-4.377991,11.921936 -9.098984,23.715942 -14.235992,36.995972zm-17.065002,39.586975c3.043991,-0.48999 5.595001,-1.083008 8.177002,-1.286011c14.304001,-1.125 28.291992,0.453979 41.904999,5.104004c11.529999,3.937988 23.044998,7.922974 34.62999,11.695007c5.363007,1.747009 8.037003,-1.166992 9.088013,-6.129028c1.26799,-5.982971 2.508987,-11.971985 4.022995,-19.207947c-10.854004,-10.077026 -26.263,-12.64801 -40.800995,-16.200012c-8.598999,-2.101013 -18.144012,-1.140015 -27.170013,-0.411011c-6.431992,0.52002 -14.178986,1.195007 -18.679993,4.971985c-5.397995,4.528015 -7.994995,12.413025 -11.712997,18.895996c-0.252991,0.442017 0.257004,1.323059 0.541,2.567017zm86.205002,33.353027c0.511993,0.632019 0.069,-0.319031 -0.677002,-0.775024c-16.972992,-10.363953 -35.528,-16.384949 -55.161987,-18.494995c-9.715012,-1.042969 -19.644012,-0.401978 -29.463013,-0.096985c-8.793991,0.272034 -13.50499,5.815979 -12.171997,12.244995c14.847,3.127014 29.505005,5.354004 43.628998,9.429993c14.057007,4.05603 27.578003,9.967041 41.687012,15.195007c3.244995,-4.669983 7.312988,-10.526978 12.15799,-17.502991zm575.526993,-313.977966c-0.862976,-2.716034 -0.893005,-3.736023 -1.413025,-4.314026c-19.860962,-22.059021 -42.330994,-40.876007 -68.638977,-54.872009c-3.661011,-1.947998 -4.68103,0.002991 -4.718994,3.381012c-0.057983,5.257996 -0.109985,10.52298 -0.380981,15.77298c-0.21405,4.111023 1.758972,4.923004 5.545959,5.52002c9.02002,1.423004 18.038025,3.233002 26.804016,5.761993c7.465027,2.153992 15.002014,5.348999 19.25,12.298004c5.312012,8.689972 14.218018,11.061981 23.552002,16.452026zm-561.83699,-16.220032c0.697998,0.993011 1.395004,1.984985 2.093002,2.979004c2.807999,-1.707001 5.785004,-3.188995 8.392975,-5.162018c10.180023,-7.701996 21.022003,-13.759979 34.10202,-14.654999c18.807007,-1.286987 19.223999,-1.707001 18.142029,-21.098999c-0.105011,-1.885986 -0.82901,-4.761993 -2.074036,-5.29599c-1.46701,-0.628998 -4.082001,0.364014 -5.734985,1.395996c-9.38501,5.858002 -19.060028,11.380005 -27.809021,18.095001c-9.51001,7.299988 -18.112976,15.777985 -27.111984,23.742004zm-80.973999,465.188965c-9.457993,-6.018005 -43.301994,-11.22998 -52.199997,-7.684021c-1.973,0.786011 -3.521004,3.702026 -4.304001,5.971008c-0.407997,1.183044 0.958,4.142029 2.074997,4.480042c4.470001,1.35498 9.139,2.09198 13.766006,2.879944c5.557999,0.946045 11.167999,1.58905 16.716995,2.587036c6.402008,1.150024 12.759995,2.546021 17.686996,3.541016c2.367004,-4.452026 4.197998,-7.896973 6.259003,-11.775024zm213.406021,-45.22699c0.005951,0.731995 0.011963,1.46698 0.018982,2.198975c3.788025,0.245056 8.002014,-0.498962 11.284027,0.91803c10.041992,4.335999 20.380951,5.817993 31.157959,5.434021c9.102051,-0.322998 17.431,1.315002 23.574005,9.008972c1.031982,1.29303 3.345001,2.601013 4.78302,2.340027c4.386017,-0.794006 9.345001,-1.363037 12.774994,-3.833008c5.667999,-4.083984 7.622009,-0.93103 9.570007,3.899963c4.917999,-5.996948 0.144012,-8.482971 -2.263,-10.95697c-2.983002,0.669006 -5.669983,2.177002 -7.705994,1.554016c-5.356018,-1.636047 -10.304993,-4.587036 -15.647003,-6.289001c-6.321014,-2.015015 -12.830994,-4.30603 -19.352997,-4.638c-13.873016,-0.704041 -27.807007,-0.244019 -41.713989,-0.195007c-2.161011,0.005981 -4.320007,0.362976 -6.480011,0.557983zm298.789978,8.796021c-4.770996,-1.380981 -8.582031,-2.805969 -12.520996,-3.562988c-10.846985,-2.087036 -23.249023,4.860962 -32.647034,-5.669983c-10.267944,0.182983 -20.940979,-2.236023 -30.778992,4.621948c1.019043,0.665039 1.525024,1.266052 2.087036,1.320007c10.633972,1.054016 21.278992,1.984009 31.903992,3.11499c1.377991,0.147034 3.010986,0.947998 3.916016,1.980042c4.522949,5.156006 9.245972,4.875977 14.992981,1.895996c1.987,-1.030029 5.369019,0.153015 7.958008,0.878967c3.401001,0.955017 6.771973,3.617004 9.916016,3.283997c1.859009,-0.195984 3.255981,-4.757996 5.172974,-7.862976zm50.747009,-214.648987c10.176025,-8.97699 19.687988,-17.367004 29.593018,-26.104004c-8.51001,-1.445984 -16.002014,-2.719971 -25.101013,-4.266968c-3.408997,2.875977 -6.19397,16.137939 -4.492004,30.370972z" id="svg_2"/>
  <path fill-rule="evenodd" clip-rule="evenodd" d="m613.880981,378.606018c-0.588013,18.359009 -10.968994,29.914001 -25.336975,36.526001c-1.628052,0.75 -5.40802,-0.989014 -6.81604,-2.703003c-0.972961,-1.18399 -0.373962,-5.085999 0.919006,-6.419006c3.106018,-3.204987 6.934021,-5.760986 10.651978,-8.312988c12.707031,-8.718018 9.679016,-33.106018 -3.090942,-40.041016c-4.677002,-2.540985 -9.128052,-6.522003 -14.072021,-7.267975c-5.259033,-0.795013 -11.174988,0.845978 -16.458984,2.515991c-13.251038,4.184998 -26.610046,6.940002 -40.519043,4.987c-14.124969,-1.983002 -28.367981,-3.580994 -42.252991,-6.705994c-15.363983,-3.459015 -29.309998,2.381989 -36.112976,16.860992c-5.174011,11.01001 0.455994,27.123993 12.075989,35.352997c2.893005,2.048004 9.285004,3.069 5.647003,8.255005c-1.109009,1.582001 -8.144989,0.651001 -11.326996,-1.145996c-15.126007,-8.541016 -20.787018,-29.519012 -14.544006,-45.709015c6.540009,-16.962006 19.710999,-23.22998 35.987,-24.615997c5.647003,-0.47998 11.520996,2.644012 17.380005,3.537994c11.975006,1.826996 24.006989,4.5 36.020996,4.524017c13.575012,0.026978 26.807007,-3.627014 40.096008,-7.217987c17.36499,-4.692993 37.315002,-0.471008 47.393982,21.413971c2.301025,4.997009 2.950012,10.756989 4.359009,16.165009z" id="svg_24"/>
 </g>
</svg>