<svg xmlns="http://www.w3.org/2000/svg" xmlns:xlink="http://www.w3.org/1999/xlink" version="1.1" x="0px" y="0px" viewBox="0 0 100 100" style="enable-background:new 0 0 100 100;" xml:space="preserve"><g><path fill="#ff0000" d="M90.8,27.1L50,3.5L9.2,27.1v47.1L50,97.7l40.8-23.5V27.1z M50,95L11.5,72.8V28.4L50,6.2l38.5,22.2v44.4L50,95z"/><path fill="#ff0000" d="M86.5,29.6L50,8.5l-36.5,21v42.1l36.5,21l36.5-21V29.6z M50,82.3c-17.5,0-31.6-14.2-31.6-31.6S32.5,19,50,19   c17.5,0,31.6,14.2,31.6,31.6S67.5,82.3,50,82.3z"/><path fill="#ff0000" d="M75.7,65.1c1.2-2.1,2.1-4.4,2.8-6.8l-9.4-4l10.2-0.2c0.1-1.2,0.2-2.3,0.2-3.5c0-1.3-0.1-2.6-0.2-3.8l-10.2-0.1l9.4-4.1   c-0.7-2.4-1.6-4.7-2.8-6.8l-9.5,3.9l7.1-7.3c-1.5-1.9-3.3-3.7-5.2-5.2l-7.3,7.2l3.8-9.5c-2.1-1.2-4.4-2.1-6.8-2.8l-4,9.4l-0.2-10.2   c-1.2-0.1-2.3-0.2-3.5-0.2c-1.3,0-2.6,0.1-3.8,0.2l-0.1,10.2l-4.1-9.4c-2.4,0.7-4.7,1.6-6.8,2.8l3.9,9.5l-7.3-7.1   c-1.9,1.5-3.7,3.3-5.2,5.2l7.2,7.3l-9.5-3.8c-1.2,2.1-2.1,4.4-2.8,6.8l9.4,4l-10.2,0.2c-0.1,1.2-0.2,2.3-0.2,3.5   c0,1.3,0.1,2.6,0.2,3.8l10.2,0.1l-9.4,4.1c0.7,2.4,1.6,4.7,2.8,6.8l9.5-3.9l-7.1,7.3c1.5,1.9,3.3,3.7,5.2,5.2l7.3-7.2l-3.8,9.5   c2.1,1.2,4.4,2.1,6.8,2.8l4-9.4l0.2,10.2c1.2,0.1,2.3,0.2,3.5,0.2c1.3,0,2.6-0.1,3.8-0.2l0.1-10.2l4.1,9.4c2.4-0.7,4.7-1.6,6.8-2.8   l-3.9-9.5l7.3,7.1c1.9-1.5,3.7-3.3,5.2-5.2l-7.2-7.3L75.7,65.1z"/></g></svg>