<?xml version="1.0"?>
<svg width="299.99999" height="155.48654" xmlns="http://www.w3.org/2000/svg" xmlns:svg="http://www.w3.org/2000/svg">

 <metadata id="metadata10431">image/svg+xml</metadata>
 <g>
  <title>Layer 1</title>
  <g fill="#000000" transform="matrix(2.2399459999999998,0,0,-2.2399459999999998,-692.4452307167519,322.331620008296) " id="g4866">
   <path fill="#000000" fill-rule="nonzero" id="path4868" d="m371.82016,102.510872c-0.040009,0.137001 -0.162994,0.241997 -0.312012,0.253998l-14.993988,-0.001999c-0.148987,-0.012001 -0.272003,-0.112999 -0.312012,-0.250999c0,0 -8.289001,-27.358002 -8.289001,-27.407997c0,-0.137001 0.111023,-0.247002 0.248016,-0.247002l9.908997,0.000999c0.080994,0.028 0.138,0.103004 0.15799,0.185997l1.153015,3.691002c0.037994,0.090004 0.123993,0.152 0.225983,0.158005l9.141022,0.005997c0.10199,-0.005997 0.187988,-0.077003 0.225983,-0.166l1.180023,-3.689003c0.018982,-0.082993 0.076996,-0.161995 0.156982,-0.188995c0,0 9.742004,0.001999 9.751007,0.001999c0.136993,0 0.247986,0.104004 0.247986,0.239998c0,0.047005 -8.48999,27.414001 -8.48999,27.414001m-5.505005,-16.026001l-4.083008,0c-0.141998,0.000999 -0.246979,0.163002 -0.246979,0.316002c0,0.058998 2.173004,7.059998 2.173004,7.059998c0.076996,0.264 0.084991,0.271004 0.11499,0.271004l0.001007,0c0.03299,0 0.039001,-0.007004 0.11499,-0.271004c0,0 2.174011,-7.000999 2.174011,-7.059998c0,-0.153 -0.111023,-0.315002 -0.248016,-0.316002"/>
  </g>
  <g fill="#000000" transform="matrix(2.2399459999999998,0,0,-2.2399459999999998,-563.7596520731681,342.027913175496) " id="g4870">
   <path fill="#000000" fill-rule="nonzero" id="path4872" d="m371.82016,102.510872l13.79599,0l0,9.047997l-17.740997,0c-1.66098,0 -3.992004,-0.853996 -5.330994,-1.845993c-1.339996,-0.993004 -3.278992,-3.255005 -3.278992,-6.371002c0,-3.116005 1.893982,-5.540001 1.893982,-5.540001c0.969025,-1.199997 3.413025,-3.707001 3.413025,-3.707001c0.053986,-0.058998 0.088989,-0.137001 0.088989,-0.223999c0,-0.188004 -0.152008,-0.338997 -0.339996,-0.338997l-13.665009,-0.001007c-1.662994,0.008003 -1.777985,0.670006 -1.777985,0.762001c0,0.170006 0.207977,0.277 0.207977,0.277c0.623016,0.300003 1.893005,1.292999 1.893005,1.292999c2.701019,2.100006 3.024017,4.986 3.024017,6.532005c0,1.546997 -0.231018,4.287994 -3.001007,6.688995c-2.769012,2.401001 -6.278992,2.470001 -6.278992,2.470001l-19.497009,0c0,0 -0.002014,-27.738998 0.001007,-27.743996c-0.002014,-0.088005 0.078979,-0.159004 0.168976,-0.159004l10.855011,0l0,7.779999c0,0.138 0.208008,0 0.208008,0l5.654999,-5.68c2.009003,-2.029999 5.332001,-2.099998 5.332001,-2.099998l21.376984,0.003998c3.647003,0 5.677002,1.985001 6.231995,2.538002c0.554016,0.554001 2.401001,2.632004 2.401001,6.071999c0,3.439003 -1.569977,5.199005 -2.23999,6.007004c-0.598999,0.722 -2.983002,3.244995 -3.479004,3.765999c-0.057983,0.048996 -0.095978,0.122002 -0.095978,0.205002c0,0.121994 0.069,0.234001 0.178986,0.267998m-29.196991,-2.377998l-6.08902,-0.001999c0,0 -0.161987,0.045998 -0.161987,0.230995l-0.005005,3.073006c0,0.183998 0.161011,0.229996 0.161011,0.229996l5.585999,0c0.647003,0 1.962006,-0.322998 1.962006,-1.823997c0,-1.5 -1.453003,-1.708 -1.453003,-1.708"/>
  </g>
  <g fill="#000000" transform="matrix(2.2399459999999998,0,0,-2.2399459999999998,-757.088513274336,384.27307074089606) " id="g4874">
   <path fill="#000000" fill-rule="nonzero" id="path4876" d="m371.82016,102.510872c0.072998,0 0.123993,0.053001 0.147003,0.132004c0,0 8.399994,27.583992 8.399994,27.611c0,0.076004 -0.04599,0.156998 -0.117004,0.162003c0,0 -10.345978,0.001999 -10.350006,0.001999c-0.053986,0 -0.085999,-0.044006 -0.097992,-0.098007c-0.001007,-0.003998 -2.139984,-7.173004 -2.140991,-7.175995c-0.014008,-0.059998 -0.044006,-0.098007 -0.097015,-0.098007c-0.049988,0 -0.095978,0.05101 -0.102997,0.098007l-2.242004,7.181c-0.007996,0.04599 -0.04599,0.093002 -0.097992,0.093002c-0.002991,0 -11.431,0 -11.431,0c-0.035004,-0.007004 -0.061981,-0.033005 -0.072998,-0.065002c0,0 -2.011993,-7.207001 -2.011993,-7.208008c-0.011993,-0.059998 -0.044006,-0.097 -0.097992,-0.097c-0.050018,0 -0.090027,0.036011 -0.097015,0.083008l-2.130005,7.199997c-0.005981,0.044998 -0.040985,0.082993 -0.083984,0.087997c0,0 -11.036011,-0.000992 -11.037018,-0.000992c-0.090973,0 -0.164001,-0.072998 -0.164001,-0.16301c0,-0.014999 0.005005,-0.046997 0.005005,-0.046997c0,0 8.519012,-27.553001 8.52301,-27.564995c0.02301,-0.079002 0.074005,-0.132004 0.145996,-0.132004c0.013,0 9.166016,-0.000999 9.166016,-0.000999c0.054993,0.003998 0.109985,0.069 0.127991,0.133003c0,0.000999 3.186981,10.257996 3.186981,10.257996c0.021027,0.063004 0.044006,0.098 0.098022,0.098c0.053986,0 0.085999,-0.042999 0.097992,-0.095001l3.112,-10.303001c0.016998,-0.052994 0.06601,-0.089996 0.125,-0.089996c0.006012,0 9.237,0 9.237,0"/>
  </g>
  <g fill="#000000" transform="matrix(2.2399459999999998,0,0,-2.2399459999999998,-774.9455778211519,254.62207537131206) " id="g4878">
   <path fill="#000000" fill-rule="nonzero" id="path4880" d="m371.82016,113.671913c-1.661987,0 -3.993011,-0.853996 -5.332001,-1.847c-1.339996,-0.992996 -3.277985,-3.253998 -3.277985,-6.371002c0,-3.115997 1.892975,-5.540001 1.892975,-5.540001c0.969025,-1.199997 3.413025,-3.723 3.413025,-3.723c0.053986,-0.060997 0.088989,-0.137993 0.088989,-0.223999c0,-0.187996 -0.152008,-0.339996 -0.339996,-0.339996c-0.029022,0 -22.299011,-0.000999 -22.299011,-0.000999l0,-9.862l26.800018,0c3.646973,0 5.678986,1.985001 6.232971,2.539001c0.554016,0.553993 2.401001,2.631996 2.401001,6.070999c0,3.438995 -1.569977,5.216995 -2.238983,6.024994c-0.598999,0.723 -2.984009,3.231003 -3.480011,3.750999c-0.057983,0.049004 -0.095978,0.123001 -0.095978,0.205002c0,0.121002 0.069,0.234001 0.178986,0.267998l12.907013,0l0,-18.858994l9.925995,0l0,18.812996l12.049988,0l0,9.095001l-38.826996,0z"/>
  </g>
  <g fill="#000000" transform="matrix(2.2399459999999998,0,0,-2.2399459999999998,-563.0538540483522,295.004950792096) " id="g4882">
   <path fill="#000000" fill-rule="nonzero" id="path4884" d="m371.82016,113.671913c-1.661987,0.008003 -1.777008,0.668999 -1.777008,0.761002c0,0.170998 0.207001,0.277 0.207001,0.277c0.623016,0.300995 1.893005,1.292999 1.893005,1.292999c2.700989,2.100998 3.024017,4.987 3.024017,6.532997c0,1.547005 -0.231018,4.288002 -3.001007,6.689003c-2.77002,2.399994 -6.278015,2.475006 -6.278015,2.475006l-19.497986,0c0,0 -0.001007,-27.744003 0.001984,-27.749008c-0.002991,-0.088997 0.078003,-0.158997 0.167999,-0.158997c0.016998,0 10.855011,0 10.855011,0l0,7.778999c0,0.139 0.208008,0 0.208008,0l5.656006,-5.678001c2.007996,-2.031998 5.33197,-2.100998 5.33197,-2.100998l16.690002,0l0,9.879997l-13.480988,0zm-8.033997,6.601997l-6.087006,-0.001999c0,0 -0.161987,0.046005 -0.161987,0.231003l-0.006012,3.071999c0,0.184998 0.161987,0.231003 0.161987,0.231003l5.586029,0c0.646973,0 1.961975,-0.324005 1.961975,-1.824005c0,-1.5 -1.454987,-1.708 -1.454987,-1.708"/>
  </g>
  <g fill="#000000" transform="matrix(2.2399459999999998,0,0,-2.2399459999999998,-643.168425708368,255.16996616291203) " id="g4886">
   <path fill="#000000" fill-rule="nonzero" id="path4888" d="m371.82016,113.671913c-0.040985,0.138 -0.164001,0.239998 -0.312012,0.246002l-14.993988,-0.000999c-0.148987,-0.007004 -0.272003,-0.105003 -0.312012,-0.243004c0,0 -8.280975,-27.367996 -8.280975,-27.417999c0,-0.137001 0.110992,-0.247002 0.247986,-0.247002l9.910004,-0.000999c0.079987,0.027 0.138,0.105003 0.15799,0.189003l1.152008,3.691002c0.037994,0.088997 0.125,0.152 0.226013,0.157997l9.140991,-0.001999c0.10199,-0.006004 0.187988,-0.069 0.225983,-0.158005l1.180023,-3.689995c0.018982,-0.083 0.078003,-0.162003 0.15799,-0.189003c0,0 9.742004,0.001999 9.751007,0.001999c0.135986,0 0.246979,0.104004 0.246979,0.242004c0,0.044998 -8.497986,27.420998 -8.497986,27.420998m-5.496002,-16.033997l-4.083984,0c-0.150024,0.000999 -0.247009,0.162994 -0.247009,0.314995c0,0.059006 2.174011,7.061005 2.174011,7.061005c0.075989,0.264 0.099976,0.270996 0.113983,0.270996l0.002014,0c0.014984,0 0.037994,-0.006996 0.11499,-0.270996c0,0 2.173004,-7.001999 2.173004,-7.061005c0,-0.152 -0.100006,-0.313995 -0.247009,-0.314995"/>
  </g>
 </g>
</svg>