<?xml version="1.0"?>
<svg width="693.615" height="419.375" xmlns="http://www.w3.org/2000/svg" xmlns:svg="http://www.w3.org/2000/svg">
 <g>
  <title>Layer 1</title>
  <g id="svg_2">
   <path id="svg_3" d="m148.718002,241.207001l8.669998,25.460999c4.690994,13.768005 8.878998,24.778992 9.425003,24.778992c0.009003,0 0.016998,-0.003998 0.024002,-0.009979c0.599991,-0.529999 17.569992,-49.811005 17.569992,-49.811005l32.889999,0l-39.679993,115.618988l-22.860001,0c0,0 -24.400009,-70.471008 -24.300003,-70.738983l-25.470001,69.850983l-22.629997,0l-39.180004,-115.149994l32.73,0.020996c0,0 17.929001,50.821014 18.167999,50.821014c0.000999,0 0.000999,-0.001007 0.002007,-0.002014l17.889999,-50.841003l36.750999,0m-116.715004,-8.005997l3.601002,10.584l39.179996,115.149017l1.845001,5.423981l5.729004,0l22.629997,0l5.598,0l1.917999,-5.26001l17.684998,-48.5c1.524002,4.434021 3.171005,9.213013 4.818008,13.988007c6.088989,17.654999 12.190994,35.277008 12.190994,35.277008l1.863998,5.382996l5.695999,0l22.860001,0l5.712006,0l1.854004,-5.402985l39.679993,-115.618011l3.637009,-10.597992l-11.20401,0l-32.889999,0l-5.705994,0l-1.858002,5.395996c-2.973999,8.634995 -6.921005,20.031006 -10.296005,29.675995c-0.509003,-1.463013 -1.039001,-3.000977 -1.58699,-4.610992l-8.669006,-25.460007l-1.845993,-5.421005l-5.727005,0l-36.75,0l-5.666,0l-1.881004,5.345001l-10.452995,29.706024c-3.453003,-9.706024 -7.456001,-21.017014 -10.515999,-29.691025l-1.882004,-5.334l-5.656998,-0.003998l-32.730003,-0.020996l-11.18,-0.007004l0,0z" fill="#FEE234"/>
  </g>
  <g id="svg_4">
   <path id="svg_5" d="m655.257996,240.757996l-0.075012,30.304993c0,0 -32.643005,-0.108978 -49.239014,-0.108978c-5.520996,0 -9.265991,0.01297 -9.44397,0.044983c-2.859985,0.520996 -4.68103,6.60202 -3.869995,9.270996c0.398987,1.350006 3.390991,5.76001 6.630005,9.809998c3.229004,4.051025 8.539978,10.681 11.779968,14.729004c8.319031,10.381012 9.460022,12.430023 10.229004,18.391022c1.25,9.681 -3.328979,20.159973 -11.828979,27.069977c-8.518005,6.930023 -8.14502,6.979004 -71.382996,6.979004c-0.916016,0 -1.835022,0 -2.777039,0c-38.459991,-0.009979 -58.799988,-0.328979 -61.760986,-0.988983c-5.259979,-1.190002 -13.639984,-8.029999 -35.789978,-29.279999c-7.96701,-7.636017 -15.309021,-14.322021 -15.686005,-14.324005c-0.01001,0 -0.015015,0.005981 -0.015015,0.015991l-0.260986,44.578979l-35.899017,-0.158997l-0.220978,-114.979996l45.270996,0l34.789978,0c24.130005,0.871002 40.460022,24.910019 37.210022,40.240005c-0.740021,3.479004 -2.619995,8.520996 -4.181,11.200012c-3.210022,5.5 -11.380005,12.559998 -18.011017,15.590973c-2.449005,1.108002 -4.449005,2.39801 -4.449005,2.858002c0,1.710022 8.061005,9.649017 11.080017,10.910004c2.57901,1.07901 10.089996,1.319 43.210022,1.319c3.881958,0 7.407959,0.002014 10.607971,0.002014c33.29303,0 31.617981,-0.23999 34.190002,-5.740997c1.801025,-3.830017 0.430969,-6.119995 -12.239014,-20.390015c-16.050964,-15.970978 -14.369995,-23.620972 -14.47998,-29.270996c-0.229004,-6.769989 5.10199,-28.069 32.812012,-28.069l73.799988,-0.002991m-215.070007,53.119995c15.369995,0 18.48999,-0.239014 21.761017,-1.660004c11.039978,-4.799988 11.629974,-18.979004 1.039978,-25.270996c-2.319,-1.381012 -5.299988,-1.608978 -21.959991,-1.699982l-19.278992,-0.101013c0.158997,0.149994 -0.061005,27.570007 -0.061005,27.570007s4.82901,1.161987 18.498993,1.161987m223.088989,-61.119995l-8.020996,0l-73.799988,0c-16.032043,0 -25.515015,6.328003 -30.645996,11.637009c-8.347046,8.632996 -10.313049,19.503983 -10.162048,24.629013c0.007996,0.426971 0.002991,0.86499 -0.001953,1.321991c-0.072998,8.328979 1.153992,17.757996 16.658997,33.245972c3.065002,3.451996 8.192993,9.239014 10.130981,12.115021c-4.237976,0.520996 -14.97998,0.520996 -26.262024,0.520996l-4.791992,0l-5.815979,-0.002014c-19.903992,0 -36.687988,-0.057007 -40.127991,-0.735992c-0.481018,-0.313995 -1.156006,-0.854004 -1.89801,-1.497986c6.877014,-4.235016 13.830017,-10.799011 17.104004,-16.412018c1.987,-3.412994 4.178009,-9.243011 5.097992,-13.567993c2.040009,-9.625 -1.324982,-21.236023 -9.001007,-31.068008c-8.955994,-11.470993 -21.984985,-18.334 -35.745972,-18.830002l-0.14502,-0.005997l-0.144989,0l-34.790009,0l-45.270996,0l-8.015991,0l0.015991,8.016998l0.221008,114.979019l0.015991,7.948975l7.949005,0.035004l35.898987,0.158997l7.988007,0.035004l0.046997,-7.988007l0.154999,-26.705994c0.733002,0.696014 1.490997,1.419006 2.269012,2.165009c24.22699,23.23999 32.358978,29.678986 39.561981,31.308014c1.979004,0.440979 5.253021,1.171997 63.523041,1.187988l2.778992,0c31.545959,0 47.380005,0 56.79895,-0.910004c10.789001,-1.042999 14.259033,-3.48999 19.460999,-7.725006l0.173035,-0.140991c10.684998,-8.687012 16.322998,-21.830017 14.714966,-34.299988c-1.047974,-8.110016 -3.19397,-11.479004 -11.921997,-22.368011l-2.593994,-3.23999c-3.039978,-3.799011 -6.712952,-8.387024 -9.174988,-11.475006c-1.985962,-2.484009 -3.546021,-4.688995 -4.487,-6.132996c1.236023,-0.003021 2.841003,-0.005005 4.91803,-0.005005c16.394958,0 48.886963,0.108002 49.212952,0.109985l8.007996,0.026001l0.02002,-8.007996l0.075012,-30.306l0.020996,-8.015991l0,0zm-233.537964,52.828003c0.013,-2.020996 0.024994,-4.286987 0.037994,-6.557007c0.01001,-2 0.019012,-4.003998 0.022003,-5.839996l11.187012,0.058014c6.428986,0.034973 16.102997,0.087982 17.988983,0.622986c2.407013,1.460999 3.75,3.720001 3.604004,6.059998c-0.079987,1.264008 -0.682007,3.588013 -3.821014,4.951019c-1.75,0.759979 -4.539978,0.996979 -18.569977,0.996979c-4.450012,0 -7.883026,-0.128998 -10.449005,-0.291992l0,0z" fill="#FEE234"/>
  </g>
  <g id="svg_6">
   <path id="svg_7" d="m312.90799,240.287003l40.290009,115.919998l-32.830017,0.149994l-5.449982,-17.410004l-58.700012,-0.470978l-5.179993,17.431l-32.5,-0.341003l39.779999,-115.229004l54.589996,-0.050003m-26.401001,16.995987c-0.083008,0.333008 -5.144012,14.218994 -10.221985,28.104004c-5.120026,14 -10.257019,28 -10.328003,28.109009c0,0.001007 -0.001007,0.001007 0,0.001007l0,0c0,0 0,0 0,-0.001007c0.135986,-0.040009 18.315979,-0.080017 29.967987,-0.080017c5.453003,0 9.475006,0.009003 9.549988,0.029022c0.001007,0.003998 0.001007,0.005005 0.001007,0.005005s0,-0.001007 0,-0.003021c0,0 0,0 -0.001007,-0.001984c-0.203979,-0.529022 -18.908966,-55.485992 -18.967987,-56.162018c0.001007,-0.003998 0.001007,-0.006012 0.001007,-0.006012l0,0c-0.001007,0 -0.001007,0.002014 -0.001007,0.006012m32.088013,-25.000992l-5.692993,0.005005l-54.589996,0.050995l-5.696014,0.005005l-1.858994,5.386002l-39.779999,115.228973l-3.623001,10.494019l11.10199,0.11499l32.5,0.341003l6.03302,0.062988l1.718994,-5.781982l3.466003,-11.662018l46.854004,0.375l3.707977,11.848022l1.765015,5.638l5.906982,-0.026001l32.82901,-0.150024l11.195007,-0.051971l-3.675995,-10.574005l-40.290009,-115.919998l-1.871002,-5.384003l0,0zm-41.123016,73.142014c1.514984,-4.128998 3.556,-9.709991 6.326996,-17.289001c0.869019,-2.376007 1.664001,-4.550995 2.393005,-6.545013c0.662994,1.956024 1.38501,4.084015 2.169006,6.39801c0.645996,1.906006 3.484985,10.269989 5.919983,17.428009c-7.23999,-0.000031 -12.689972,0.000977 -16.80899,0.007996l0,0z" fill="#FEE234"/>
  </g>
  <g id="svg_8">
   <path id="svg_9" d="m326.488007,61.928001l0,28.599998l-57.279999,0l0,87.470001l-34.149994,0l0,-87.540001l-66.860001,0.190002c-8.059998,0 -9.139999,6.419998 -9.139999,8.879997c0,3.019997 1.970001,6.040001 12.789993,19.740005c7.020004,8.899994 13.470001,17.779999 14.319992,19.720001c4.639999,10.679993 -1.360001,27.319992 -12.289993,34.079987c-7.789993,4.813004 -6.459,4.931 -64.307999,4.931c-2.973999,0 -6.096001,0 -9.391998,0l-62.27,0l0,-32.12999l97.900005,0l2.889999,-2.01001c1.949997,-1.360001 3.080002,-3.229996 3.509995,-5.789993c0.600006,-3.679993 0.290009,-4.160004 -11.800003,-17.779999c-14.289993,-16.099998 -15.799995,-19.040001 -15.059998,-29.32c0.840004,-11.730003 11.300003,-28.770004 29.580002,-28.770004l181.559998,-0.270996m8,-8.012001l-8.013,0.012001l-181.559998,0.269997c-10.457993,0 -20.170998,4.518005 -27.341995,12.722c-5.814003,6.652 -9.630005,15.429001 -10.206001,23.477005c-0.973,13.510994 2.137001,18.39299 17.056,35.201996c4.329994,4.876999 8.446999,9.516006 9.820992,11.486008c-0.021988,0.078995 -0.041992,0.12999 -0.054001,0.158997c-0.014999,0.011993 -0.037994,0.029999 -0.069992,0.052002l-0.822006,0.571991l-95.390003,0l-8,0l0,8l0,32.130005l0,8l8,0l62.27,0l4.936996,0l4.455002,0c28.521996,0 42.599998,-0.027008 50.894005,-0.634995c9.48999,-0.695007 12.51799,-2.323013 17.054001,-5.139999l0.565994,-0.351013c14.261993,-8.820999 21.612,-29.826996 15.421997,-44.07399c-1.910004,-4.358002 -14.002991,-19.746002 -15.375992,-21.486008c-3.796005,-4.806992 -10.062012,-12.739998 -11.054001,-15.035995c0.024002,-0.193001 0.070999,-0.392998 0.121002,-0.531998c0.164993,-0.042 0.480988,-0.098 1.000992,-0.098l58.860001,-0.167007l0,79.517006l0,8l8,0l34.150009,0l8,0l0,-8l0,-79.470001l49.279999,0l8,0l0,-8l0,-28.599998l0,-8.010002l0,0z" fill="#FEE234"/>
  </g>
  <g id="svg_10">
   <path id="svg_11" d="m419.548004,62.857002l40.179993,116.219994l-32.769989,-0.179993l-5.320007,-17.410004l-58.438995,-0.259995l-5.221008,16.769989l-33.368988,0l39.738983,-115.139992l55.200012,0m-46.811005,73.620995l39.800995,-0.050003c0.001007,0 0.001007,0.001007 0.001007,0.001007c0.135986,0 -19.34201,-57.201004 -19.472015,-57.240997l0,0c-0.141998,-0.005005 -20.778992,57.289993 -20.329987,57.289993m52.51001,-81.620995l-5.699005,0l-55.199982,0l-5.701019,0l-1.859985,5.389999l-39.740021,115.140999l-3.661987,10.610001l11.225006,0l33.369995,0l5.889008,0l1.75,-5.623001l3.460999,-11.121002l46.631989,0.207001l3.598999,11.774002l1.721008,5.628998l5.886993,0.033005l32.769989,0.179993l11.297028,0.062012l-3.69101,-10.67601l-40.179993,-116.220001l-1.868011,-5.385994l0,0zm-41.395996,73.607002c2.467987,-7.027008 5.903992,-16.656998 9.014008,-25.312004c2.947998,8.644005 6.208984,18.245003 8.587982,25.290016l-17.60199,0.021988l0,0z" fill="#FEE234"/>
  </g>
  <g id="svg_12">
   <path id="svg_13" d="m532.395996,62.857002c25.921021,0 43.910034,0.369995 47.369995,0.970001c8,1.389999 15.22998,5.659996 20.650024,12.219994c5.669983,6.860001 6.969971,10.139999 7.709961,19.540001c1.061035,13.269997 -5.25,24.720009 -17.700012,32.150002c-3.630005,2.170013 -7.358948,4.280014 -8.289978,4.699997c-1.429993,0.650009 -1.239014,1.270004 1.320007,4.270004c1.648987,1.929993 4.51001,4.679993 6.349976,6.110001l3.360046,2.610016l62.079956,0.889999l0.609009,31.679993l-38.060974,0c-29.439026,0 -38.860046,-0.270004 -41.619995,-1.199997c-4.130005,-1.400009 -14.069031,-9.820007 -34.270996,-29.040009l-14.420044,-13.720001l0.152039,43.959991l-37.042999,0l0,-115.139992l41.803986,0m-5.458008,51.769997l19.671021,0c19.140991,0 19.738953,-0.059998 22.469971,-2.110001c4.880981,-3.660004 6.609009,-7.43 6.091003,-13.220001c-0.529968,-5.969994 -2.830017,-9.079994 -8.601013,-11.579994c-3.25,-1.420006 -6.380981,-1.650002 -21.721008,-1.650002l-17.909973,0l0,28.559998m5.458008,-59.769997l-41.799988,0l-8,0l0,8l0,115.139992l0,8l8,0l37.042969,0l8.028015,0l-0.028015,-8.028l-0.087952,-25.215988l0.839966,0.798996c24.986023,23.772995 32.356018,29.173004 37.218018,30.820999c3.732971,1.259003 9.981995,1.623993 44.187988,1.623993l38.060974,0l8.154053,0l-0.156006,-8.153992l-0.609009,-31.680008l-0.14801,-7.733994l-7.734009,-0.111008l-59.401978,-0.850998l-1.244995,-0.966995c-0.396057,-0.309006 -0.876038,-0.716995 -1.389038,-1.179001c0.445984,-0.263992 0.854004,-0.507004 1.207031,-0.716995c15.002991,-8.953003 22.865967,-23.406998 21.56897,-39.653008c-0.862976,-10.959 -2.820007,-15.895996 -9.52002,-24c-6.583984,-7.968994 -15.620972,-13.297997 -25.44696,-15.004997c-5.460022,-0.946999 -32.880981,-1.088997 -48.742004,-1.088997l0,0zm2.541992,39.209999l9.909973,0c14.027039,0 16.80603,0.233002 18.518005,0.980995c3.25,1.408005 3.580017,2.091003 3.835022,4.957001c0.255981,2.848 -0.096985,3.994003 -2.921997,6.112c-0.093018,0.069 -0.164001,0.123001 -0.223022,0.166c-1.86499,0.345001 -8.78595,0.345001 -17.44696,0.345001l-11.670044,0l-0.000977,-12.560997l0,0z" fill="#FEE234"/>
  </g>
 </g>
</svg>